<svg width="80" height="80" viewBox="0 0 80 80" fill="none" xmlns="http://www.w3.org/2000/svg">
<path d="M24.4857 58.8571C19.96 43.2686 32.6571 38.1143 39.5714 37.4857C56.6684 38.9943 56.7524 52.3619 54.6573 58.8571L51.5145 60.1143H27.0002C27.2097 60.3238 27.0001 60.3657 24.4857 58.8571Z" fill="#009AE0" fill-opacity="0.3"/>
<circle cx="40.2004" cy="28.0572" r="8.8" fill="#009AE0" fill-opacity="0.3"/>
<path d="M64.7989 37.3605C66.8236 35.9346 68.1643 33.5625 68.1643 30.8888C68.1643 26.5148 64.6347 22.9773 60.2705 22.9773C55.9063 22.9773 52.3767 26.5148 52.3767 30.8888C52.3767 33.5625 53.7037 35.9346 55.7421 37.3605C54.0047 37.9639 52.4177 38.8962 51.077 40.1028C49.2301 38.526 47.0548 37.3194 44.6744 36.6064C47.561 34.8514 49.5037 31.6566 49.5037 28.0231C49.5037 22.4836 45.0301 18 39.503 18C33.976 18 29.5023 22.4974 29.5023 28.0231C29.5023 31.6566 31.4313 34.8514 34.3317 36.6064C31.9786 37.3194 29.8307 38.5123 27.9975 40.0617C26.6567 38.8825 25.0971 37.9639 23.387 37.3743C25.4118 35.9483 26.7525 33.5762 26.7525 30.9025C26.7525 26.5285 23.2228 22.991 18.8587 22.991C14.4945 22.991 10.9648 26.5285 10.9648 30.9025C10.9648 33.5762 12.2919 35.9483 14.3303 37.3743C8.89903 39.2527 5 44.4219 5 50.4961V51.4011C5 51.4285 5.02736 51.4559 5.05472 51.4559H21.7864C21.6906 52.21 21.6359 52.9916 21.6359 53.7731V54.7055C21.6359 58.7367 24.8919 62 28.9141 62H50.1193C54.1415 62 57.3975 58.7367 57.3975 54.7055V53.7731C57.3975 52.9916 57.3428 52.21 57.247 51.4559H74.0881C74.1155 51.4559 74.1429 51.4285 74.1429 51.4011V50.4961C74.1155 44.4082 70.2301 39.239 64.7989 37.3605ZM54.5656 30.875C54.5656 27.7214 57.1239 25.1574 60.2705 25.1574C63.4171 25.1574 65.9754 27.7214 65.9754 30.875C65.9754 33.9875 63.4718 36.5242 60.3799 36.5927C60.3389 36.5927 60.3115 36.5927 60.2705 36.5927C60.2295 36.5927 60.2021 36.5927 60.1611 36.5927C57.0555 36.5379 54.5656 34.0012 54.5656 30.875ZM31.6639 28.0231C31.6639 23.704 35.1662 20.1938 39.4757 20.1938C43.7851 20.1938 47.2874 23.704 47.2874 28.0231C47.2874 32.1913 44.0177 35.6055 39.9271 35.8386C39.7766 35.8386 39.6261 35.8386 39.4757 35.8386C39.3252 35.8386 39.1747 35.8386 39.0242 35.8386C34.9336 35.6055 31.6639 32.1913 31.6639 28.0231ZM13.1127 30.875C13.1127 27.7214 15.671 25.1574 18.8176 25.1574C21.9642 25.1574 24.5225 27.7214 24.5225 30.875C24.5225 33.9875 22.0189 36.5242 18.9271 36.5927C18.886 36.5927 18.8587 36.5927 18.8176 36.5927C18.7766 36.5927 18.7492 36.5927 18.7082 36.5927C15.6163 36.5379 13.1127 34.0012 13.1127 30.875ZM22.1694 49.2484H7.21629C7.83193 43.4073 12.757 38.8277 18.7355 38.7865C18.7629 38.7865 18.7903 38.7865 18.8176 38.7865C18.845 38.7865 18.8723 38.7865 18.8997 38.7865C21.7453 38.8003 24.3447 39.856 26.3558 41.57C24.3857 43.7089 22.9219 46.3415 22.1694 49.2484ZM55.1812 54.7055C55.1812 57.5164 52.8965 59.8062 50.092 59.8062H28.8867C26.0821 59.8062 23.7974 57.5164 23.7974 54.7055V53.7731C23.7974 45.2583 30.5831 38.2929 39.0242 38.0461C39.1747 38.0598 39.3389 38.0598 39.4893 38.0598C39.6398 38.0598 39.804 38.0598 39.9545 38.0461C48.3956 38.2929 55.1812 45.2583 55.1812 53.7731V54.7055ZM56.8093 49.2484C56.0568 46.3553 54.6203 43.7638 52.664 41.6248C54.6887 39.8697 57.3154 38.814 60.1884 38.7865C60.2158 38.7865 60.2431 38.7865 60.2705 38.7865C60.2979 38.7865 60.3252 38.7865 60.3526 38.7865C66.3311 38.8277 71.2562 43.4073 71.8718 49.2484H56.8093Z" fill="black"/>
</svg>
