<svg width="71" height="64" viewBox="0 0 71 64" fill="none" xmlns="http://www.w3.org/2000/svg">
<path d="M21.8873 11.6663H70C70 11.6663 70 48.579 57.1127 63.1646C57.1127 63.1646 9 63.1646 9 63.1646C21.8873 47.1772 21.8873 11.6663 21.8873 11.6663Z" fill="#009AE0" fill-opacity="0.3"/>
<path d="M14.5088 5.77393H62.988C62.9844 5.96569 62.9798 6.18343 62.9739 6.42575C62.9477 7.49428 62.8953 9.04021 62.7902 10.9436C62.5802 14.7518 62.16 19.9841 61.3205 25.6832C60.4806 31.3855 59.2238 37.5344 57.3468 43.1833C55.5229 48.6724 53.1341 53.6255 50.0255 57.2415H50.0114H49.9793H49.9461H49.912H49.8768H49.8406H49.8035H49.7653H49.7261H49.686H49.6448H49.6027H49.5596H49.5156H49.4705H49.4246H49.3776H49.3297H49.2809H49.2311H49.1803H49.1287H49.0761H49.0226H48.9681H48.9128H48.8565H48.7994H48.7413H48.6823H48.6224H48.5617H48.5H48.4375H48.3741H48.3099H48.2447H48.1787H48.1119H48.0442H47.9756H47.9062H47.836H47.7649H47.693H47.6203H47.5467H47.4724H47.3972H47.3212H47.2444H47.1668H47.0884H47.0093H46.9293H46.8486H46.767H46.6848H46.6017H46.5179H46.4333H46.348H46.2619H46.1751H46.0875H45.9992H45.9102H45.8204H45.7299H45.6387H45.5468H45.4542H45.3609H45.2669H45.1722H45.0768H44.9807H44.8839H44.7864H44.6883H44.5895H44.4901H44.3899H44.2892H44.1878H44.0857H43.983H43.8796H43.7757H43.6711H43.5658H43.46H43.3535H43.2465H43.1388H43.0305H42.9217H42.8122H42.7022H42.5915H42.4803H42.3686H42.2562H42.1433H42.0298H41.9158H41.8012H41.6861H41.5705H41.4543H41.3375H41.2203H41.1025H40.9842H40.8654H40.746H40.6262H40.5059H40.385H40.2637H40.1419H40.0196H39.8968H39.7736H39.6499H39.5257H39.4011H39.276H39.1504H39.0244H38.898H38.7711H38.6438H38.5161H38.3879H38.2593H38.1304H38.0009H37.8711H37.7409H37.6103H37.4793H37.3479H37.2161H37.084H36.9515H36.8186H36.6853H36.5517H36.4177H36.2834H36.1487H36.0137H35.8783H35.7426H35.6066H35.4702H35.3335H35.1966H35.0593H34.9217H34.7837H34.6455H34.507H34.3683H34.2292H34.0898H33.9502H33.8103H33.6701H33.5297H33.389H33.2481H33.1069H32.9655H32.8238H32.6819H32.5398H32.3974H32.2548H32.112H31.969H31.8258H31.6824H31.5388H31.395H31.251H31.1068H30.9624H30.8179H30.6732H30.5283H30.3832H30.238H30.0927H29.9472H29.8015H29.6557H29.5098H29.3638H29.2176H29.0713H28.9249H28.7783H28.6317H28.4849H28.3381H28.1912H28.0441H27.897H27.7498H27.6026H27.4552H27.3078H27.1603H27.0128H26.8652H26.7176H26.5699H26.4221H26.2744H26.1266H25.9788H25.8309H25.6831H25.5352H25.3873H25.2394H25.0916H24.9437H24.7958H24.6479H24.5001H24.3523H24.2045H24.0567H23.909H23.7613H23.6137H23.4661H23.3186H23.1711H23.0237H22.8763H22.729H22.5819H22.4347H22.2877H22.1408H21.9939H21.8472H21.7005H21.554H21.4076H21.2613H21.1151H20.969H20.8231H20.6773H20.5317H20.3862H20.2408H20.0956H19.9506H19.8057H19.661H19.5165H19.3721H19.2279H19.0839H18.9401H18.7965H18.6531H18.5098H18.3668H18.224H18.0815H17.9391H17.797H17.6551H17.5134H17.372H17.2308H17.0898H16.9492H16.8087H16.6686H16.5287H16.389H16.2497H16.1106H15.9718H15.8333H15.6951H15.5572H15.4196H15.2823H15.1453H15.0087H14.8723H14.7363H14.6006H14.4652H14.3302H14.1955H14.0612H13.9272H13.7936H13.6603H13.5274H13.3949H13.2627H13.131H12.9996H12.8686H12.738H12.6077H12.4779H12.3485H12.2195H12.0909H11.9628H11.8351H11.7077H11.5809H11.4544H11.3284H11.2029H11.0778H10.9532H10.829H10.7053H10.582H10.4593H10.337H10.2152H10.0938H9.973H9.85267H9.73283H9.61351H9.49469H9.37639H9.2586H9.14134H9.02461H8.90841H8.79275H8.67763H8.56305H8.44903H8.33556H8.22265H8.1103H7.99853H7.88732H7.7767H7.66665H7.5572H7.44833H7.34006H7.23239H7.12533H7.01887H6.91303H6.80781H6.7032H6.59923H6.49589H6.39318H6.29112H6.1897H6.08893H5.98882H5.88936H5.79057H5.69244H5.59499H5.49822H5.40212H5.30672H5.212H5.11798H5.02465H4.93204H4.84013H4.74893H4.65845H4.56869H4.47966H4.39136H4.3038H4.21698H4.1309H4.04557H3.96099H3.87717H3.79412H3.71183H3.63032H3.54958H3.46962H3.39044H3.31206H3.23447H3.15768H3.08169H3.00651H2.93215H2.8586H2.78587H2.71396H2.64289H2.57265H2.50326H2.4347H2.367H2.30014H2.23415H2.16901H2.10475H2.04135H2.01882C8.13306 48.6804 11.2314 36.0448 12.82 25.4312C13.6707 19.7475 14.0957 14.5886 14.3082 10.8508C14.4145 8.9813 14.4678 7.46574 14.4944 6.41592C14.5004 6.17749 14.5051 5.96305 14.5088 5.77393Z" fill="white" stroke="#2D2D45" stroke-width="2"/>
<path d="M64.9646 12.7432H69.4941V62.688H22V58.8963" stroke="#2D2D45" stroke-width="2"/>
<path d="M29.8055 0V9.54779" stroke="#2D2D45" stroke-width="2"/>
<path d="M46.8055 0V9.54779" stroke="#2D2D45" stroke-width="2"/>
<path fill-rule="evenodd" clip-rule="evenodd" d="M37.936 29.5981L37.018 27.1233H32.086L31.168 29.5981H28.18L32.986 17.4132H36.28L41.032 29.5981H37.936ZM34.588 20.4379L33.022 24.6485H36.118L34.588 20.4379Z" fill="#FF0000"/>
<path fill-rule="evenodd" clip-rule="evenodd" d="M50.248 22.8784H51.904C52.984 22.8784 53.722 22.2768 53.722 21.3316C53.722 20.352 52.984 19.7677 51.904 19.7677H50.248V22.8784ZM52.192 25.2157H50.23V29.5981H47.386V17.4132H52.192C54.784 17.4132 56.566 19.0459 56.566 21.3144C56.566 23.6174 54.784 25.2157 52.192 25.2157Z" fill="#009AE0"/>
<path fill-rule="evenodd" clip-rule="evenodd" d="M19.248 41.9739H20.904C21.984 41.9739 22.722 41.3724 22.722 40.4272C22.722 39.4476 21.984 38.8633 20.904 38.8633H19.248V41.9739ZM21.192 44.3112H19.23V48.6937H16.386V36.5088H21.192C23.784 36.5088 25.566 38.1415 25.566 40.41C25.566 42.7129 23.784 44.3112 21.192 44.3112Z" fill="#009AE0"/>
</svg>
