<svg width="72" height="64" viewBox="0 0 72 64" fill="none" xmlns="http://www.w3.org/2000/svg">
<path fill-rule="evenodd" clip-rule="evenodd" d="M11.4286 26.8171H26.2857C26.9177 26.8171 27.4286 26.3051 27.4286 25.6742C27.4286 25.0434 26.9177 24.5314 26.2857 24.5314H11.4286C10.7966 24.5314 10.2857 25.0434 10.2857 25.6742C10.2857 26.3051 10.7966 26.8171 11.4286 26.8171Z" fill="#009AE0" stroke="#2D2D45"/>
<path d="M66.7943 43.04H64.4286C63.7966 43.04 59.2857 43.552 59.2857 44.1829V53.7989L52.5714 47.5132V26.88C52.5714 23.1429 52.5714 16.1593 45.792 14.1029L23.2857 14.1589V14.3075C23.2857 11.8309 25.3006 9.81604 27.7748 9.81604L66.7931 9.89604C69.272 9.89604 71.2868 11.9109 71.2868 14.3875V38.5498C71.2857 41.0263 69.2708 43.04 66.7943 43.04Z" fill="#009AE0" fill-opacity="0.3"/>
<path fill-rule="evenodd" clip-rule="evenodd" d="M41.1428 31.3885H11.4286C10.7966 31.3885 10.2857 31.9005 10.2857 32.5314C10.2857 33.1623 10.7966 33.6743 11.4286 33.6743H41.1428C41.7748 33.6743 42.2857 33.1623 42.2857 32.5314C42.2857 31.9005 41.7748 31.3885 41.1428 31.3885Z" fill="#009AE0" stroke="#2D2D45"/>
<path fill-rule="evenodd" clip-rule="evenodd" d="M41.1428 38.2457H11.4286C10.7966 38.2457 10.2857 38.7577 10.2857 39.3886C10.2857 40.0194 10.7966 40.5314 11.4286 40.5314H41.1428C41.7748 40.5314 42.2857 40.0194 42.2857 39.3886C42.2857 38.7577 41.7748 38.2457 41.1428 38.2457Z" fill="#009AE0" stroke="#2D2D45"/>
<path fill-rule="evenodd" clip-rule="evenodd" d="M61.7966 0.611372L22.7771 0.531372C19.04 0.531372 16 3.57137 16 7.30852V13.1645L6.77714 13.1839C3.04 13.1839 0 16.2239 0 19.9611V44.1222C0 47.8594 3.04 50.8982 6.77714 50.8982H13.7143V62.3268C13.7143 62.7988 14.0046 63.2228 14.4457 63.3931C14.5794 63.4445 14.7189 63.4697 14.8571 63.4697C15.1726 63.4697 15.4823 63.3382 15.7029 63.0959L26.7931 50.8959L45.7943 50.8182C49.5314 50.8182 52.5714 47.7782 52.5714 44.0422V43.9131L58.5829 50.5257C58.8034 50.7679 59.1131 50.8994 59.4286 50.8994C59.5669 50.8994 59.7063 50.8742 59.84 50.8228C60.2811 50.6525 60.5714 50.2285 60.5714 49.7565V38.3279H61.7943C65.5314 38.3279 68.5714 35.2879 68.5714 31.5519V7.38851C68.5714 3.65251 65.5326 0.612515 61.7966 0.611372ZM50.2857 44.0411C50.2857 46.5177 48.2709 48.5314 45.7897 48.5314L26.2811 48.6114C25.9611 48.6125 25.6549 48.7485 25.44 48.9851L16 59.3702V49.7542C16 49.1234 15.4891 48.6114 14.8571 48.6114H6.77714C4.30057 48.6114 2.28571 46.5965 2.28571 44.1211V19.9599C2.28571 17.4834 4.30057 15.4685 6.77943 15.4685L17.1429 15.4468H17.1451L45.7943 15.3874C48.2709 15.3874 50.2857 17.4022 50.2857 19.8788V40.9542V44.0411ZM61.7943 36.0399C64.2709 36.0399 66.2857 34.0262 66.2857 31.5497H66.2869V7.38737C66.2869 4.9108 64.272 2.89594 61.7954 2.89594H61.7931L22.7749 2.81594C20.3006 2.81594 18.2857 4.8308 18.2857 7.30737V13.1588L45.792 13.1028C49.5314 13.1028 52.5714 16.1428 52.5714 19.8799V40.5131L58.2857 46.7988V37.1828C58.2857 36.5519 58.7966 36.0399 59.4286 36.0399H61.7943Z" fill="#2D2D45"/>
</svg>
