<svg width="54" height="64" viewBox="0 0 54 64" fill="none" xmlns="http://www.w3.org/2000/svg">
<path fill-rule="evenodd" clip-rule="evenodd" d="M13.3775 21.9143C15.6938 22.2252 18.0285 22.3789 20.3655 22.3744C22.2323 22.3762 24.0978 22.2793 25.9544 22.0842C26.2344 22.0589 26.4791 21.8845 26.5944 21.6281C26.7098 21.3716 26.678 21.0729 26.5112 20.8465C26.3444 20.6201 26.0685 20.5012 25.7894 20.5354C23.9876 20.7245 22.1771 20.8183 20.3655 20.8166C18.0992 20.8211 15.8352 20.6722 13.589 20.3709C13.3122 20.331 13.0353 20.4425 12.8634 20.6631C12.6915 20.8836 12.6511 21.1794 12.7574 21.4381C12.8638 21.6967 13.1006 21.8785 13.3779 21.9143H13.3775Z" fill="#2D2D45"/>
<path fill-rule="evenodd" clip-rule="evenodd" d="M33.813 20.9383C33.4528 21.8077 32.6044 22.3745 31.6634 22.3744C30.3791 22.3729 29.3384 21.3321 29.3369 20.0478C29.3369 19.1068 29.9038 18.2585 30.7732 17.8983C31.6426 17.5382 32.6433 17.7373 33.3087 18.4027C33.9741 19.0682 34.1731 20.0689 33.813 20.9383ZM32.3737 19.7537C32.2547 19.4664 31.9743 19.2791 31.6634 19.2792C31.2391 19.2797 30.8952 19.6235 30.8947 20.0478C30.8947 20.3588 31.082 20.6392 31.3692 20.7582C31.6565 20.8772 31.9872 20.8115 32.2071 20.5916C32.427 20.3717 32.4928 20.041 32.3737 19.7537Z" fill="#2D2D45"/>
<path fill-rule="evenodd" clip-rule="evenodd" d="M13.3775 35.0695C15.6938 35.3803 18.0285 35.534 20.3655 35.5295C22.2323 35.5313 24.0978 35.4345 25.9544 35.2394C26.233 35.2123 26.4757 35.0377 26.59 34.7821C26.7043 34.5265 26.6726 34.2293 26.5071 34.0035C26.3415 33.7778 26.0675 33.6582 25.7894 33.6904C23.9876 33.8796 22.1771 33.9735 20.3655 33.9717C18.0992 33.9762 15.8352 33.8273 13.589 33.5261C13.3122 33.4861 13.0353 33.5976 12.8634 33.8182C12.6915 34.0388 12.6511 34.3346 12.7574 34.5932C12.8638 34.8518 13.1006 35.0336 13.3779 35.0695H13.3775Z" fill="#2D2D45"/>
<path fill-rule="evenodd" clip-rule="evenodd" d="M33.813 34.0933C33.4528 34.9627 32.6044 35.5295 31.6634 35.5295C30.3791 35.5279 29.3384 34.4871 29.3369 33.2029C29.3369 32.2618 29.9038 31.4135 30.7732 31.0534C31.6426 30.6933 32.6433 30.8924 33.3087 31.5578C33.9741 32.2232 34.1731 33.2239 33.813 34.0933ZM32.3737 32.9086C32.2547 32.6213 31.9743 32.434 31.6634 32.4341C31.239 32.4347 30.8952 32.7786 30.8947 33.2029C30.8947 33.5138 31.082 33.7942 31.3693 33.9131C31.6566 34.0321 31.9873 33.9663 32.2072 33.7464C32.427 33.5265 32.4928 33.1959 32.3737 32.9086Z" fill="#2D2D45"/>
<path fill-rule="evenodd" clip-rule="evenodd" d="M25.7894 46.8453C23.9876 47.0345 22.1771 47.1284 20.3655 47.1266C18.0992 47.1311 15.8352 46.9823 13.589 46.6811C13.3122 46.6412 13.0353 46.7527 12.8634 46.9732C12.6915 47.1938 12.6511 47.4896 12.7574 47.7482C12.8638 48.0069 13.1006 48.1886 13.3779 48.2245C15.6942 48.5353 18.0289 48.689 20.3659 48.6844C22.2327 48.6863 24.0982 48.5894 25.9548 48.3943C26.2334 48.3672 26.4761 48.1926 26.5904 47.937C26.7047 47.6814 26.673 47.3842 26.5074 47.1584C26.3419 46.9327 26.0679 46.8131 25.7898 46.8453H25.7894Z" fill="#2D2D45"/>
<path fill-rule="evenodd" clip-rule="evenodd" d="M40.617 33.2504L51.6599 39.1348C51.9139 39.2701 52.0726 39.5344 52.0726 39.8222V46.7432C52.0723 53.4958 48.0221 59.5896 41.7963 62.2044L40.0461 62.9602C39.8482 63.0457 39.6237 63.0453 39.4261 62.9592L37.8719 62.2818C34.4791 60.796 31.6713 58.2325 29.8836 54.9886C26.7466 55.5879 23.5592 55.8832 20.3655 55.8702C15.0748 55.8702 10.0903 55.1211 6.33067 53.7606C2.32178 52.31 0.114105 50.2799 0.114105 48.0441V7.89295C0.114105 5.65866 2.32204 3.62883 6.33132 2.17773C10.092 0.816728 15.076 0.0667725 20.3655 0.0667725C25.655 0.0667725 30.6391 0.816208 34.3998 2.17721C38.4091 3.62831 40.617 5.65814 40.617 7.89295V33.2504ZM6.33132 13.6093C4.29578 12.8722 2.72551 11.9866 1.67191 11V21.2461C1.67191 22.7548 3.56335 24.3046 6.86072 25.4977C10.4547 26.7983 15.2507 27.5143 20.3655 27.5143C25.4803 27.5143 30.2764 26.7983 33.8705 25.4977C37.168 24.3046 39.0592 22.7548 39.0592 21.2461V11C38.0056 11.9866 36.4355 12.8726 34.3998 13.6093C30.6391 14.9703 25.6549 15.7199 20.3655 15.7199C15.0761 15.7199 10.092 14.9703 6.33132 13.6093ZM6.86137 3.64272C10.4565 2.34156 15.2524 1.6251 20.3655 1.6251C25.4786 1.6251 30.2746 2.34156 33.8694 3.64272C37.1667 4.83627 39.0588 6.38551 39.0588 7.89347C39.0588 9.40143 37.1674 10.9507 33.8694 12.1442C30.2742 13.4451 25.4785 14.1617 20.3651 14.1617C15.2517 14.1617 10.456 13.4451 6.86098 12.1442C3.56335 10.9507 1.67191 9.4013 1.67191 7.89295C1.67191 6.3846 3.56335 4.83627 6.86137 3.64272ZM6.33067 26.9631C4.2954 26.2262 2.72538 25.3404 1.67191 24.3538V34.5994C1.67191 36.1081 3.56335 37.6577 6.86072 38.851C10.4547 40.1514 15.2507 40.8677 20.3655 40.8677C22.8539 40.8744 25.3393 40.693 27.8004 40.3252V39.8228C27.8004 39.5383 27.9555 39.2765 28.205 39.1397L39.0592 33.1912V24.3544C38.0057 25.3404 36.4357 26.2268 34.4004 26.9631C30.6408 28.3236 25.6563 29.0728 20.3655 29.0728C15.0747 29.0728 10.0903 28.3236 6.33067 26.9631ZM20.3656 54.3124C15.2508 54.3124 10.4548 53.5961 6.86085 52.2957C3.56348 51.1024 1.67204 49.5528 1.67204 48.0441V37.7064C2.72551 38.693 4.29553 39.5788 6.3308 40.3158C10.0904 41.6761 15.0749 42.4254 20.3656 42.4254C22.8533 42.4318 25.3382 42.257 27.8005 41.9021V46.9031C27.8005 49.1853 28.2676 51.4434 29.1732 53.5383C26.267 54.0639 23.3188 54.323 20.3655 54.3124H20.3656ZM41.1874 60.771C46.8373 58.3999 50.5136 52.8713 50.5149 46.7441L50.5151 40.2897L39.7826 34.5708L29.3582 40.2836V46.9031C29.3647 52.9552 32.9507 58.4303 38.4959 60.8548L39.7388 61.3966L41.182 60.7734L41.1874 60.771Z" fill="#2D2D45"/>
<path d="M53.6306 49.3404C53.6293 55.4676 49.9529 60.9962 44.3031 63.3673L44.2976 63.3697L42.8544 63.9929L41.6116 63.4511C36.0663 61.0266 32.4804 55.5515 32.4738 49.4994V42.8799L42.8982 37.1671L53.6307 42.886L53.6306 49.3404Z" fill="#009AE0" fill-opacity="0.3"/>
<path fill-rule="evenodd" clip-rule="evenodd" d="M36.1282 43.4216V45.7513C35.2336 46.0037 34.6152 46.8192 34.6136 47.7488V54.2397C34.6148 55.3863 35.5441 56.3155 36.6907 56.3167H43.1816C44.3282 56.3155 45.2574 55.3863 45.2586 54.2397V47.7488C45.257 46.8193 44.6387 46.0037 43.7441 45.7513V43.4216C43.7441 41.3185 42.0392 39.6136 39.9361 39.6136C37.8331 39.6136 36.1282 41.3185 36.1282 43.4216ZM43.7008 54.2397C43.7008 54.5264 43.4684 54.7589 43.1816 54.7589H36.6907C36.4039 54.7589 36.1714 54.5264 36.1714 54.2397V47.7488C36.1714 47.462 36.4039 47.2295 36.6907 47.2295H43.1816C43.4684 47.2295 43.7008 47.462 43.7008 47.7488V54.2397ZM42.1863 43.4216C42.1848 42.1795 41.1784 41.1729 39.9363 41.1713C39.9364 41.1713 39.9365 41.1713 39.9365 41.1713H39.9361C39.9362 41.1713 39.9362 41.1713 39.9363 41.1713C38.6941 41.1727 37.6874 42.1793 37.686 43.4216V45.6717H42.1863V43.4216Z" fill="#2D2D45"/>
<path d="M43.7008 54.2396C43.7008 54.5264 43.4683 54.7589 43.1816 54.7589H36.6907C36.4039 54.7589 36.1714 54.5264 36.1714 54.2396V47.7488C36.1714 47.462 36.4039 47.2295 36.6907 47.2295H43.1816C43.4683 47.2295 43.7008 47.462 43.7008 47.7488V54.2396Z" fill="white"/>
<path d="M39.9361 41.1714C41.1783 41.1729 42.1848 42.1795 42.1863 43.4216V45.6718H37.686V43.4216C37.6874 42.1793 38.6942 41.1726 39.9365 41.1714H39.9361Z" fill="white"/>
</svg>
