<svg width="46" height="72" viewBox="0 0 46 72" fill="none" xmlns="http://www.w3.org/2000/svg">
<path fill-rule="evenodd" clip-rule="evenodd" d="M40.9526 12.6875C38.5273 12.6875 38.5273 8.9375 36.1016 8.9375C33.6763 8.9375 33.6763 12.6875 31.2515 12.6875C28.8262 12.6875 28.8262 8.9375 26.4009 8.9375C23.9756 8.9375 23.9756 12.6875 21.5503 12.6875C19.1255 12.6875 19.1255 8.9375 16.7002 8.9375C14.2754 8.9375 14.2754 12.6875 11.8506 12.6875C9.42529 12.6875 9.42529 8.9375 7 8.9375V71.0625C9.42529 71.0625 9.42529 67.3125 11.8506 67.3125C14.2754 67.3125 14.2754 71.0625 16.7002 71.0625C19.1255 71.0625 19.1255 67.3125 21.5503 67.3125C23.9756 67.3125 23.9756 71.0625 26.4009 71.0625C28.8262 71.0625 28.8262 67.3125 31.2515 67.3125C33.6768 67.3125 33.6768 71.0625 36.1016 71.0625C38.5273 71.0625 38.5273 67.3125 40.9526 67.3125C43.3784 67.3125 43.3784 71.0625 45.8042 71.0625V8.9375C43.3784 8.9375 43.3784 12.6875 40.9526 12.6875Z" fill="#009AE0" fill-opacity="0.3"/>
<path fill-rule="evenodd" clip-rule="evenodd" d="M35.9526 4.6875C33.5273 4.6875 33.5273 0.9375 31.1016 0.9375C28.6763 0.9375 28.6763 4.6875 26.2515 4.6875C23.8262 4.6875 23.8262 0.9375 21.4009 0.9375C18.9756 0.9375 18.9756 4.6875 16.5503 4.6875C14.1255 4.6875 14.1255 0.9375 11.7002 0.9375C9.27539 0.9375 9.27539 4.6875 6.85059 4.6875C4.42529 4.6875 4.42529 0.9375 2 0.9375V63.0625C4.42529 63.0625 4.42529 59.3125 6.85059 59.3125C9.27539 59.3125 9.27539 63.0625 11.7002 63.0625C14.1255 63.0625 14.1255 59.3125 16.5503 59.3125C18.9756 59.3125 18.9756 63.0625 21.4009 63.0625C23.8262 63.0625 23.8262 59.3125 26.2515 59.3125C28.6768 59.3125 28.6768 63.0625 31.1016 63.0625C33.5273 63.0625 33.5273 59.3125 35.9526 59.3125C38.3784 59.3125 38.3784 63.0625 40.8042 63.0625V0.9375C38.3784 0.9375 38.3784 4.6875 35.9526 4.6875Z" fill="white"/>
<path fill-rule="evenodd" clip-rule="evenodd" d="M34.9526 4.6875C33.9722 4.6875 33.3882 4.07471 32.8799 3.34424V60.6558C33.3882 59.9253 33.9722 59.3125 34.9526 59.3125C37.3784 59.3125 37.3784 63.0625 39.8042 63.0625V0.9375C37.3784 0.9375 37.3784 4.6875 34.9526 4.6875Z" fill="white"/>
<path fill-rule="evenodd" clip-rule="evenodd" d="M4.77734 25.2036H22.1792V29.1016H4.77734V25.2036Z" fill="#009AE0"/>
<path fill-rule="evenodd" clip-rule="evenodd" d="M23.9292 49.4521H36.0273V53.3506H23.9292V49.4521Z" fill="#009AE0"/>
<path fill-rule="evenodd" clip-rule="evenodd" d="M4.77734 10.6494H36.0273V14.5479H4.77734V10.6494Z" fill="#009AE0"/>
<path fill-rule="evenodd" clip-rule="evenodd" d="M23.1167 25.2036V29.1016C23.1167 29.6196 22.6968 30.0391 22.1792 30.0391H4.77734C4.25928 30.0391 3.83984 29.6191 3.83984 29.1016V25.2036C3.83984 24.686 4.25928 24.2661 4.77734 24.2661H22.1792C22.6968 24.2661 23.1167 24.686 23.1167 25.2036ZM5.71484 28.1641H21.2417V26.1411H5.71484V28.1641Z" fill="#2D2D45"/>
<path fill-rule="evenodd" clip-rule="evenodd" d="M36.0273 54.2881H23.9292C23.4111 54.2881 22.9917 53.8682 22.9917 53.3506V49.4521C22.9917 48.9346 23.4111 48.5146 23.9292 48.5146H36.0273C36.5449 48.5146 36.9648 48.9346 36.9648 49.4521V53.3506C36.9648 53.8682 36.5449 54.2881 36.0273 54.2881ZM35.0898 50.3896H24.8667V52.4131H35.0898V50.3896Z" fill="#2D2D45"/>
<path fill-rule="evenodd" clip-rule="evenodd" d="M36.0273 18.5869H4.77734C4.25928 18.5869 3.83984 19.0068 3.83984 19.5244C3.83984 20.0425 4.25928 20.4619 4.77734 20.4619H36.0273C36.5449 20.4619 36.9648 20.0425 36.9648 19.5244C36.9648 19.0068 36.5449 18.5869 36.0273 18.5869Z" fill="#2D2D45"/>
<path fill-rule="evenodd" clip-rule="evenodd" d="M16.1167 34.1494C16.1167 33.6318 15.6968 33.2119 15.1792 33.2119H4.77734C4.25928 33.2119 3.83984 33.6318 3.83984 34.1494C3.83984 34.6675 4.25928 35.0869 4.77734 35.0869H15.1792C15.6968 35.0869 16.1167 34.6675 16.1167 34.1494Z" fill="#2D2D45"/>
<path fill-rule="evenodd" clip-rule="evenodd" d="M13.478 37.9414H4.77734C4.25928 37.9414 3.83984 38.3608 3.83984 38.8789C3.83984 39.3965 4.25928 39.8164 4.77734 39.8164H13.478C13.9961 39.8164 14.4155 39.3965 14.4155 38.8789C14.4155 38.3608 13.9961 37.9414 13.478 37.9414Z" fill="#2D2D45"/>
<path fill-rule="evenodd" clip-rule="evenodd" d="M13.478 42.6704H4.77734C4.25928 42.6704 3.83984 43.0903 3.83984 43.6079C3.83984 44.126 4.25928 44.5454 4.77734 44.5454H13.478C13.9961 44.5454 14.4155 44.126 14.4155 43.6079C14.4155 43.0903 13.9961 42.6704 13.478 42.6704Z" fill="#2D2D45"/>
<path fill-rule="evenodd" clip-rule="evenodd" d="M36.0273 42.6704H31.6768C31.1587 42.6704 30.7393 43.0903 30.7393 43.6079C30.7393 44.126 31.1587 44.5454 31.6768 44.5454H36.0273C36.5449 44.5454 36.9648 44.126 36.9648 43.6079C36.9648 43.0903 36.5449 42.6704 36.0273 42.6704Z" fill="#2D2D45"/>
<path fill-rule="evenodd" clip-rule="evenodd" d="M36.0273 37.9414H31.6768C31.1587 37.9414 30.7393 38.3613 30.7393 38.8789C30.7393 39.3965 31.1587 39.8164 31.6768 39.8164H36.0273C36.5449 39.8164 36.9648 39.3965 36.9648 38.8789C36.9648 38.3613 36.5449 37.9414 36.0273 37.9414Z" fill="#2D2D45"/>
<path fill-rule="evenodd" clip-rule="evenodd" d="M36.0273 33.2119H31.6768C31.1587 33.2119 30.7393 33.6318 30.7393 34.1494C30.7393 34.6675 31.1587 35.0869 31.6768 35.0869H36.0273C36.5449 35.0869 36.9648 34.6675 36.9648 34.1494C36.9648 33.6318 36.5449 33.2119 36.0273 33.2119Z" fill="#2D2D45"/>
<path fill-rule="evenodd" clip-rule="evenodd" d="M39.8042 22.0542C40.3218 22.0542 40.7417 21.6343 40.7417 21.1167V0.9375C40.7417 0.419922 40.3218 0 39.8042 0C36.8325 0 36.5835 3.75 34.9526 3.75C33.3228 3.75 33.0767 0 30.1016 0C27.1309 0 26.8809 3.75 25.2515 3.75C23.6162 3.75 23.3809 0 20.4004 0C17.4297 0 17.1802 3.75 15.5503 3.75C13.9229 3.75 13.6724 0 10.7002 0C7.729 0 7.47998 3.75 5.8501 3.75C4.21484 3.75 3.98096 0 1 0C0.481934 0 0.0625 0.419922 0.0625 0.9375V63.0625C0.0625 63.5801 0.481934 64 1 64C3.97119 64 4.2207 60.25 5.8501 60.25C7.48486 60.25 7.71973 64 10.7002 64C13.6709 64 13.9204 60.25 15.5503 60.25C17.1855 60.25 17.4204 64 20.4004 64C23.3716 64 23.6216 60.25 25.2515 60.25C26.8867 60.25 27.1211 64 30.1016 64C33.0732 64 33.3223 60.25 34.9526 60.25C36.583 60.25 36.8291 64 39.8042 64C40.3218 64 40.7417 63.5801 40.7417 63.0625V24.6167C40.7417 24.0986 40.3218 23.6792 39.8042 23.6792C39.2861 23.6792 38.8667 24.0986 38.8667 24.6167V61.6519C37.9307 60.6172 37.2485 58.375 34.9526 58.375C31.9814 58.375 31.7324 62.125 30.1016 62.125C28.4741 62.125 28.2236 58.375 25.2515 58.375C22.2803 58.375 22.0303 62.125 20.4004 62.125C18.7656 62.125 18.5308 58.375 15.5503 58.375C12.5791 58.375 12.3296 62.125 10.7002 62.125C9.06445 62.125 8.83057 58.375 5.8501 58.375C3.55566 58.375 2.87402 60.6157 1.9375 61.6514V2.34863C2.87207 3.38232 3.55518 5.625 5.85059 5.625C8.82129 5.625 9.0708 1.875 10.7002 1.875C12.3359 1.875 12.5698 5.625 15.5503 5.625C18.5215 5.625 18.771 1.875 20.4009 1.875C22.0361 1.875 22.271 5.625 25.2515 5.625C28.2227 5.625 28.4717 1.875 30.1021 1.875C31.7324 1.875 31.9785 5.625 34.9531 5.625C37.2485 5.625 37.9312 3.38281 38.8667 2.34814V21.1167C38.8667 21.6343 39.2861 22.0542 39.8042 22.0542Z" fill="#2D2D45"/>
<path fill-rule="evenodd" clip-rule="evenodd" d="M36.9648 10.6494C36.9648 10.1318 36.5449 9.71191 36.0273 9.71191H13.478C12.96 9.71191 12.5405 10.1318 12.5405 10.6494C12.5405 11.1675 12.96 11.5869 13.478 11.5869H35.0898V13.6104H5.71484V11.5869H9.97803C10.4961 11.5869 10.9155 11.1675 10.9155 10.6494C10.9155 10.1318 10.4961 9.71191 9.97803 9.71191H4.77734C4.25928 9.71191 3.83984 10.1318 3.83984 10.6494V14.5479C3.83984 15.0654 4.25928 15.4854 4.77734 15.4854H36.0273C36.5449 15.4854 36.9648 15.0654 36.9648 14.5479V10.6494Z" fill="#2D2D45"/>
</svg>
