<svg width="67" height="64" viewBox="0 0 67 64" fill="none" xmlns="http://www.w3.org/2000/svg">
<path fill-rule="evenodd" clip-rule="evenodd" d="M5.32799 57.5523H33.0342V55.4207H5.32799C3.5625 55.4207 2.13114 53.9893 2.13114 52.2238V5.33654C2.13114 3.57051 3.5625 2.13969 5.32799 2.13969H52.2153C53.9816 2.13969 55.4121 3.57051 55.4121 5.33654V29.8456H57.5438V5.33654C57.5403 2.3953 55.1568 0.0120171 52.2153 0.00854492H5.32799C2.38729 0.0120171 0.00373932 2.3953 0 5.33654V52.2238C0.00373932 55.1651 2.38729 57.5483 5.32799 57.5523Z" fill="#2D2D45"/>
<path fill-rule="evenodd" clip-rule="evenodd" d="M4.26282 4.27136H6.3937V6.40224H4.26282V4.27136Z" fill="#2D2D45"/>
<path fill-rule="evenodd" clip-rule="evenodd" d="M8.52484 4.27136H10.6565V6.40224H8.52484V4.27136Z" fill="#2D2D45"/>
<path fill-rule="evenodd" clip-rule="evenodd" d="M12.7874 4.27136H14.9188V6.40224H12.7874V4.27136Z" fill="#2D2D45"/>
<path fill-rule="evenodd" clip-rule="evenodd" d="M4.26282 8.53345H53.281V10.6651H4.26282V8.53345Z" fill="#2D2D45"/>
<mask id="path-6-inside-1" fill="white">
<path fill-rule="evenodd" clip-rule="evenodd" d="M12.5329 15.8349L15.2397 13.1282L16.7461 14.6351L14.0396 17.3418C15.5546 19.6292 15.0896 22.6936 12.9648 24.4297C10.8398 26.1661 7.74449 26.0104 5.80458 24.0697C3.86441 22.1298 3.7087 19.0347 5.44481 16.91C7.18119 14.785 10.245 14.3202 12.5329 15.8349ZM6.40234 20.2753C6.40234 22.0408 7.8337 23.4719 9.59892 23.4719C11.3652 23.4719 12.796 22.0408 12.796 20.2753C12.7944 19.8002 12.6852 19.3325 12.4766 18.9062L10.3524 21.0277L8.84598 19.5208L10.9686 17.3979C10.542 17.1893 10.0743 17.0804 9.59892 17.0788C7.8337 17.0788 6.40234 18.5096 6.40234 20.2753Z"/>
</mask>
<path fill-rule="evenodd" clip-rule="evenodd" d="M12.5329 15.8349L15.2397 13.1282L16.7461 14.6351L14.0396 17.3418C15.5546 19.6292 15.0896 22.6936 12.9648 24.4297C10.8398 26.1661 7.74449 26.0104 5.80458 24.0697C3.86441 22.1298 3.7087 19.0347 5.44481 16.91C7.18119 14.785 10.245 14.3202 12.5329 15.8349ZM6.40234 20.2753C6.40234 22.0408 7.8337 23.4719 9.59892 23.4719C11.3652 23.4719 12.796 22.0408 12.796 20.2753C12.7944 19.8002 12.6852 19.3325 12.4766 18.9062L10.3524 21.0277L8.84598 19.5208L10.9686 17.3979C10.542 17.1893 10.0743 17.0804 9.59892 17.0788C7.8337 17.0788 6.40234 18.5096 6.40234 20.2753Z" fill="#009AE0"/>
<path d="M15.2397 13.1282L15.5933 12.7747L15.2397 12.421L14.8861 12.7746L15.2397 13.1282ZM12.5329 15.8349L12.2569 16.2518L12.5976 16.4774L12.8865 16.1885L12.5329 15.8349ZM16.7461 14.6351L17.0997 14.9887L17.4531 14.6352L17.0997 14.2816L16.7461 14.6351ZM14.0396 17.3418L13.6861 16.9883L13.3971 17.2773L13.6228 17.6179L14.0396 17.3418ZM12.9648 24.4297L12.6485 24.0425L12.6485 24.0425L12.9648 24.4297ZM5.80458 24.0697L6.15821 23.7162L6.15811 23.7161L5.80458 24.0697ZM5.44481 16.91L5.05763 16.5936L5.05762 16.5936L5.44481 16.91ZM12.796 20.2753H13.296L13.296 20.2737L12.796 20.2753ZM12.4766 18.9062L12.9257 18.6864L12.6182 18.0581L12.1233 18.5524L12.4766 18.9062ZM10.3524 21.0277L9.99878 21.3812L10.3521 21.7347L10.7057 21.3815L10.3524 21.0277ZM8.84598 19.5208L8.49241 19.1673L8.13896 19.5208L8.49237 19.8743L8.84598 19.5208ZM10.9686 17.3979L11.3222 17.7515L11.8172 17.2564L11.1882 16.9488L10.9686 17.3979ZM9.59892 17.0788L9.60061 16.5788H9.59892V17.0788ZM14.8861 12.7746L12.1794 15.4814L12.8865 16.1885L15.5932 13.4817L14.8861 12.7746ZM17.0997 14.2816L15.5933 12.7747L14.8861 13.4817L16.3925 14.9886L17.0997 14.2816ZM14.3932 17.6954L17.0997 14.9887L16.3925 14.2816L13.6861 16.9883L14.3932 17.6954ZM13.2812 24.8169C15.6047 22.9184 16.1133 19.5674 14.4565 17.0658L13.6228 17.6179C14.9958 19.6911 14.5745 22.4688 12.6485 24.0425L13.2812 24.8169ZM5.45096 24.4232C7.57241 26.5455 10.9574 26.7158 13.2812 24.8169L12.6485 24.0425C10.7223 25.6164 7.91656 25.4753 6.15821 23.7162L5.45096 24.4232ZM5.05762 16.5936C3.15903 18.9172 3.32933 22.3018 5.45105 24.4233L6.15811 23.7161C4.39949 21.9577 4.25836 19.1522 5.83199 17.2263L5.05762 16.5936ZM12.809 15.418C10.3069 13.7615 6.95642 14.2698 5.05763 16.5936L5.83199 17.2263C7.40595 15.3001 10.1832 14.8789 12.2569 16.2518L12.809 15.418ZM9.59892 22.9719C8.10981 22.9719 6.90234 21.7647 6.90234 20.2753H5.90234C5.90234 22.317 7.55758 23.9719 9.59892 23.9719V22.9719ZM12.296 20.2753C12.296 21.7647 11.0891 22.9719 9.59892 22.9719V23.9719C11.6413 23.9719 13.296 22.317 13.296 20.2753H12.296ZM12.0275 19.126C12.2029 19.4844 12.2947 19.8775 12.296 20.277L13.296 20.2737C13.2942 19.7229 13.1675 19.1806 12.9257 18.6864L12.0275 19.126ZM10.7057 21.3815L12.8299 19.26L12.1233 18.5524L9.99906 20.674L10.7057 21.3815ZM8.49237 19.8743L9.99878 21.3812L10.706 20.6743L9.1996 19.1673L8.49237 19.8743ZM10.615 17.0444L8.49241 19.1673L9.19956 19.8743L11.3222 17.7515L10.615 17.0444ZM9.59723 17.5788C9.99721 17.5801 10.3904 17.6718 10.7489 17.8471L11.1882 16.9488C10.6937 16.7069 10.1515 16.5806 9.60061 16.5788L9.59723 17.5788ZM6.90234 20.2753C6.90234 18.7858 8.10978 17.5788 9.59892 17.5788V16.5788C7.55761 16.5788 5.90234 18.2334 5.90234 20.2753H6.90234Z" fill="#2D2D45" mask="url(#path-6-inside-1)"/>
<path fill-rule="evenodd" clip-rule="evenodd" d="M18.1197 18.3248H36.2348V20.4557H18.1197V18.3248Z" fill="#2D2D45"/>
<path fill-rule="evenodd" clip-rule="evenodd" d="M38.359 18.3248H49.0152V20.4557H38.359V18.3248Z" fill="#2D2D45"/>
<mask id="path-10-inside-2" fill="white">
<path fill-rule="evenodd" clip-rule="evenodd" d="M12.5329 28.6213L15.2397 25.9146L16.7461 27.4215L14.0396 30.1282C15.5546 32.4164 15.0896 35.4797 12.9648 37.2161C10.8398 38.9525 7.74449 38.7968 5.80458 36.8566C3.86441 34.9162 3.7087 31.8213 5.44481 29.6963C7.18119 27.5713 10.245 27.1066 12.5329 28.6213ZM6.40234 33.0617C6.40234 34.8272 7.8337 36.2586 9.59892 36.2586C11.3652 36.2586 12.796 34.8272 12.796 33.0617C12.7944 32.5866 12.6852 32.1189 12.4766 31.6923L10.3524 33.8141L8.84598 32.3077L10.9686 30.1843C10.542 29.9757 10.0743 29.8665 9.59892 29.8646C7.8337 29.8646 6.40234 31.296 6.40234 33.0617Z"/>
</mask>
<path fill-rule="evenodd" clip-rule="evenodd" d="M12.5329 28.6213L15.2397 25.9146L16.7461 27.4215L14.0396 30.1282C15.5546 32.4164 15.0896 35.4797 12.9648 37.2161C10.8398 38.9525 7.74449 38.7968 5.80458 36.8566C3.86441 34.9162 3.7087 31.8213 5.44481 29.6963C7.18119 27.5713 10.245 27.1066 12.5329 28.6213ZM6.40234 33.0617C6.40234 34.8272 7.8337 36.2586 9.59892 36.2586C11.3652 36.2586 12.796 34.8272 12.796 33.0617C12.7944 32.5866 12.6852 32.1189 12.4766 31.6923L10.3524 33.8141L8.84598 32.3077L10.9686 30.1843C10.542 29.9757 10.0743 29.8665 9.59892 29.8646C7.8337 29.8646 6.40234 31.296 6.40234 33.0617Z" fill="#009AE0"/>
<path d="M15.2397 25.9146L15.5933 25.5611L15.2397 25.2074L14.8861 25.561L15.2397 25.9146ZM12.5329 28.6213L12.2569 29.0382L12.5976 29.2637L12.8865 28.9748L12.5329 28.6213ZM16.7461 27.4215L17.0997 27.775L17.4531 27.4215L17.0997 27.068L16.7461 27.4215ZM14.0396 30.1282L13.6861 29.7747L13.3972 30.0636L13.6227 30.4042L14.0396 30.1282ZM12.9648 37.2161L13.2812 37.6033L13.2812 37.6033L12.9648 37.2161ZM5.80458 36.8566L6.15816 36.5031L5.80458 36.8566ZM5.44481 29.6963L5.05763 29.38L5.0576 29.38L5.44481 29.6963ZM12.796 33.0617H13.296L13.296 33.06L12.796 33.0617ZM12.4766 31.6923L12.9258 31.4727L12.6183 30.844L12.1232 31.3386L12.4766 31.6923ZM10.3524 33.8141L9.99884 34.1677L10.3522 34.521L10.7057 34.1679L10.3524 33.8141ZM8.84598 32.3077L8.49236 31.9542L8.13894 32.3078L8.49243 32.6613L8.84598 32.3077ZM10.9686 30.1843L11.3222 30.5378L11.8171 30.0427L11.1882 29.7352L10.9686 30.1843ZM9.59892 29.8646L9.60089 29.3646H9.59892V29.8646ZM14.8861 25.561L12.1794 28.2677L12.8865 28.9748L15.5932 26.2681L14.8861 25.561ZM17.0997 27.068L15.5933 25.5611L14.8861 26.268L16.3925 27.775L17.0997 27.068ZM14.3932 30.4818L17.0997 27.775L16.3925 27.068L13.6861 29.7747L14.3932 30.4818ZM13.2812 37.6033C15.6047 35.7045 16.1133 32.3546 14.4565 29.8522L13.6227 30.4042C14.9959 32.4783 14.5745 35.255 12.6484 36.8289L13.2812 37.6033ZM5.451 37.2101C7.57245 39.3319 10.9574 39.5021 13.2812 37.6033L12.6485 36.8289C10.7223 38.4028 7.91652 38.2617 6.15816 36.5031L5.451 37.2101ZM5.0576 29.38C3.15903 31.7039 3.32936 35.0882 5.451 37.2101L6.15816 36.5031C4.39947 34.7441 4.25837 31.9388 5.83201 30.0127L5.0576 29.38ZM12.809 28.2044C10.3069 26.5479 6.95642 27.0562 5.05763 29.38L5.83199 30.0127C7.40595 28.0865 10.1832 27.6653 12.2569 29.0382L12.809 28.2044ZM9.59892 35.7586C8.10986 35.7586 6.90234 34.5511 6.90234 33.0617H5.90234C5.90234 35.1033 7.55753 36.7586 9.59892 36.7586V35.7586ZM12.296 33.0617C12.296 34.5511 11.089 35.7586 9.59892 35.7586V36.7586C11.6414 36.7586 13.296 35.1033 13.296 33.0617H12.296ZM12.0274 31.912C12.2029 32.2707 12.2947 32.6639 12.296 33.0634L13.296 33.06C13.2942 32.5092 13.1675 31.967 12.9258 31.4727L12.0274 31.912ZM10.7057 34.1679L12.8299 32.0461L12.1232 31.3386L9.99904 33.4604L10.7057 34.1679ZM8.49243 32.6613L9.99884 34.1677L10.7059 33.4606L9.19954 31.9542L8.49243 32.6613ZM10.615 29.8308L8.49236 31.9542L9.1996 32.6612L11.3222 30.5378L10.615 29.8308ZM9.59695 30.3646C9.99693 30.3662 10.3902 30.458 10.7489 30.6335L11.1882 29.7352C10.6939 29.4934 10.1518 29.3668 9.60089 29.3646L9.59695 30.3646ZM6.90234 33.0617C6.90234 31.572 8.10989 30.3646 9.59892 30.3646V29.3646C7.5575 29.3646 5.90234 31.0199 5.90234 33.0617H6.90234Z" fill="#2D2D45" mask="url(#path-10-inside-2)"/>
<path fill-rule="evenodd" clip-rule="evenodd" d="M18.1197 31.1111H36.2348V33.2425H18.1197V31.1111Z" fill="#2D2D45"/>
<mask id="path-13-inside-3" fill="white">
<path fill-rule="evenodd" clip-rule="evenodd" d="M12.5329 41.4075L15.2397 38.7008L16.7461 40.2078L14.0396 42.9142C15.5546 45.2024 15.0896 48.266 12.9648 50.0024C10.8398 51.7385 7.74449 51.5833 5.80458 49.6428C3.86441 47.7024 3.7087 44.6076 5.44481 42.4826C7.18119 40.3576 10.245 39.8928 12.5329 41.4075ZM6.40234 45.848C6.40234 47.6135 7.8337 49.0448 9.59892 49.0448C11.3652 49.0448 12.796 47.6135 12.796 45.848C12.7944 45.3731 12.6852 44.9051 12.4766 44.4786L10.3524 46.6004L8.84598 45.094L10.9686 42.9706C10.542 42.7617 10.0743 42.6527 9.59892 42.6511C7.8337 42.6511 6.40234 44.0822 6.40234 45.848Z"/>
</mask>
<path fill-rule="evenodd" clip-rule="evenodd" d="M12.5329 41.4075L15.2397 38.7008L16.7461 40.2078L14.0396 42.9142C15.5546 45.2024 15.0896 48.266 12.9648 50.0024C10.8398 51.7385 7.74449 51.5833 5.80458 49.6428C3.86441 47.7024 3.7087 44.6076 5.44481 42.4826C7.18119 40.3576 10.245 39.8928 12.5329 41.4075ZM6.40234 45.848C6.40234 47.6135 7.8337 49.0448 9.59892 49.0448C11.3652 49.0448 12.796 47.6135 12.796 45.848C12.7944 45.3731 12.6852 44.9051 12.4766 44.4786L10.3524 46.6004L8.84598 45.094L10.9686 42.9706C10.542 42.7617 10.0743 42.6527 9.59892 42.6511C7.8337 42.6511 6.40234 44.0822 6.40234 45.848Z" fill="#009AE0"/>
<path d="M15.2397 38.7008L15.5933 38.3473L15.2397 37.9936L14.8861 38.3473L15.2397 38.7008ZM12.5329 41.4075L12.2569 41.8245L12.5976 42.05L12.8865 41.7611L12.5329 41.4075ZM16.7461 40.2078L17.0996 40.5613L17.4531 40.2078L17.0997 39.8543L16.7461 40.2078ZM14.0396 42.9142L13.6861 42.5607L13.3972 42.8496L13.6227 43.1902L14.0396 42.9142ZM12.9648 50.0024L13.2812 50.3896L13.2812 50.3895L12.9648 50.0024ZM5.80458 49.6428L6.15818 49.2893L6.15816 49.2893L5.80458 49.6428ZM5.44481 42.4826L5.05763 42.1662L5.0576 42.1662L5.44481 42.4826ZM12.796 45.848H13.296L13.296 45.8463L12.796 45.848ZM12.4766 44.4786L12.9258 44.2589L12.6183 43.6303L12.1232 44.1248L12.4766 44.4786ZM10.3524 46.6004L9.99884 46.9539L10.3522 47.3073L10.7057 46.9541L10.3524 46.6004ZM8.84598 45.094L8.49236 44.7405L8.13894 45.094L8.49243 45.4475L8.84598 45.094ZM10.9686 42.9706L11.3222 43.3241L11.8169 42.8292L11.1885 42.5215L10.9686 42.9706ZM9.59892 42.6511L9.60061 42.1511H9.59892V42.6511ZM14.8861 38.3473L12.1794 41.054L12.8865 41.7611L15.5932 39.0544L14.8861 38.3473ZM17.0997 39.8543L15.5933 38.3473L14.8861 39.0543L16.3925 40.5612L17.0997 39.8543ZM14.3932 43.2678L17.0996 40.5613L16.3925 39.8542L13.6861 42.5607L14.3932 43.2678ZM13.2812 50.3895C15.6047 48.4907 16.1133 45.1406 14.4565 42.6382L13.6227 43.1902C14.9959 45.2643 14.5745 48.0412 12.6484 49.6152L13.2812 50.3895ZM5.45098 49.9964C7.57249 52.1184 10.9574 52.2881 13.2812 50.3896L12.6485 49.6152C10.7223 51.1889 7.91648 51.0481 6.15818 49.2893L5.45098 49.9964ZM5.0576 42.1662C3.15903 44.4901 3.32936 47.8744 5.451 49.9964L6.15816 49.2893C4.39947 47.5304 4.25837 44.7251 5.83201 42.7989L5.0576 42.1662ZM12.809 40.9906C10.3069 39.3342 6.95642 39.8424 5.05763 42.1662L5.83199 42.799C7.40595 40.8727 10.1832 40.4515 12.2569 41.8245L12.809 40.9906ZM9.59892 48.5448C8.10986 48.5448 6.90234 47.3374 6.90234 45.848H5.90234C5.90234 47.8896 7.55753 49.5448 9.59892 49.5448V48.5448ZM12.296 45.848C12.296 47.3374 11.089 48.5448 9.59892 48.5448V49.5448C11.6414 49.5448 13.296 47.8896 13.296 45.848H12.296ZM12.0274 44.6982C12.2029 45.057 12.2947 45.4504 12.296 45.8497L13.296 45.8463C13.2942 45.2958 13.1675 44.7533 12.9258 44.2589L12.0274 44.6982ZM10.7057 46.9541L12.8299 44.8323L12.1232 44.1248L9.99904 46.2466L10.7057 46.9541ZM8.49243 45.4475L9.99884 46.9539L10.7059 46.2468L9.19954 44.7404L8.49243 45.4475ZM10.615 42.6171L8.49236 44.7405L9.1996 45.4475L11.3222 43.3241L10.615 42.6171ZM9.59723 43.1511C9.9972 43.1525 10.3903 43.2441 10.7487 43.4196L11.1885 42.5215C10.6938 42.2793 10.1515 42.153 9.60061 42.1511L9.59723 43.1511ZM6.90234 45.848C6.90234 44.3584 8.10984 43.1511 9.59892 43.1511V42.1511C7.55755 42.1511 5.90234 43.8061 5.90234 45.848H6.90234Z" fill="#2D2D45" mask="url(#path-13-inside-3)"/>
<path fill-rule="evenodd" clip-rule="evenodd" d="M18.1197 43.8975H31.9725V46.0291H18.1197V43.8975Z" fill="#2D2D45"/>
<path fill-rule="evenodd" clip-rule="evenodd" d="M66.0881 47.9845C66.0881 56.812 58.9324 63.969 50.1042 63.969C41.2802 63.9583 34.1301 56.808 34.1197 47.9845C34.1197 39.1562 41.2759 32 50.1042 32C58.9324 32 66.0881 39.1562 66.0881 47.9845ZM63.9573 47.9845C63.9573 40.3336 57.7545 34.1314 50.1042 34.1314C42.4565 34.14 36.2596 40.3373 36.2505 47.9845C36.2505 55.6354 42.453 61.8373 50.1042 61.8373C57.7545 61.8373 63.9573 55.6354 63.9573 47.9845Z" fill="black"/>
<path d="M44.7709 24.6272C54.6869 24.6272 62.7265 32.6662 62.7265 42.5829C62.7265 52.4996 54.6869 60.5383 44.7709 60.5383C34.8539 60.5383 26.8146 52.4996 26.8146 42.5829C26.8264 32.671 34.8584 24.6383 44.7709 24.6272Z" fill="#009AE0" fill-opacity="0.3"/>
<path fill-rule="evenodd" clip-rule="evenodd" d="M49.1897 55.2478L48.4923 53.2786H44.7453L44.0479 55.2478H41.7778L45.4291 45.5521H47.9316L51.5419 55.2478H49.1897ZM46.6462 47.9589L45.4564 51.3094H47.8085L46.6462 47.9589ZM51.4228 43.3504H54.0211V40.6837H55.7715V43.3504H58.3562V45.0461H55.7715V47.7128H54.0211V45.0461H51.4228V43.3504Z" fill="#2D2D45"/>
</svg>
