<svg width="68" height="66" viewBox="0 0 68 66" fill="none" xmlns="http://www.w3.org/2000/svg">
<path fill-rule="evenodd" clip-rule="evenodd" d="M60.0269 64.8077H6.4347C3.41542 64.8077 1 62.5655 1 59.7628V59.7628C1 56.9602 3.41542 54.718 6.4347 54.718H60.0269C63.0462 54.718 65.4616 56.9602 65.4616 59.7628V59.7628C65.4616 62.5655 63.0462 64.8077 60.0269 64.8077V64.8077Z" stroke="#2D2D45" stroke-width="2"/>
<path fill-rule="evenodd" clip-rule="evenodd" d="M15.4947 6.66626H11.9914C9.04858 6.66626 6.59624 9.1186 6.59624 12.0614V45.4133C6.59624 48.3561 9.04858 50.8085 11.9914 50.8085H15.4947C18.4376 50.8085 20.8899 48.3561 20.8899 45.4133V12.0614C20.8899 9.04854 18.4376 6.66626 15.4947 6.66626Z" fill="#009AE0" fill-opacity="0.3"/>
<path fill-rule="evenodd" clip-rule="evenodd" d="M10.2488 1.42041H6.74549C3.80268 1.42041 1.35033 3.87276 1.35033 6.81557V40.1675C1.35033 43.1103 3.80268 45.5626 6.74549 45.5626H10.2488C13.1917 45.5626 15.644 43.1103 15.644 40.1675V6.81557C15.644 3.80269 13.1917 1.42041 10.2488 1.42041V1.42041Z" stroke="#2D2D45" stroke-width="2"/>
<path fill-rule="evenodd" clip-rule="evenodd" d="M38.3691 23.5615H31.6426C29.5406 23.5615 27.859 25.2431 27.859 27.3451V41.7089C27.859 43.8109 29.5406 45.4925 31.6426 45.4925H38.3691C40.4711 45.4925 42.1527 43.8109 42.1527 41.7089V27.3451C42.1527 25.2431 40.4711 23.5615 38.3691 23.5615V23.5615Z" stroke="#2D2D45" stroke-width="2"/>
<path fill-rule="evenodd" clip-rule="evenodd" d="M61.7714 14.4296H56.5865C54.0641 14.4296 52.0321 16.4615 52.0321 18.9839V41.4754C52.0321 43.9978 54.0641 46.0298 56.5865 46.0298H61.7714C64.2939 46.0298 66.3258 43.9978 66.3258 41.4754V18.9839C66.3258 16.4615 64.2939 14.4296 61.7714 14.4296V14.4296Z" stroke="#2D2D45" stroke-width="2"/>
</svg>
