<svg width="78" height="66" viewBox="0 0 78 66" fill="none" xmlns="http://www.w3.org/2000/svg">
<rect x="10.7565" y="20.0818" width="66.3472" height="45.2783" fill="#009AE0" fill-opacity="0.3"/>
<rect x="2" y="2" width="66.0554" height="55.1414" fill="white" stroke="#2D2D45" stroke-width="3"/>
<rect x="49.6947" y="51.816" width="11.5247" height="3.90074" fill="#2D2D45"/>
<path fill-rule="evenodd" clip-rule="evenodd" d="M20.9929 34.2471L20.1618 31.8839H15.6966L14.8655 34.2471H12.1603L16.5115 22.6115H19.4937L23.7959 34.2471H20.9929ZM17.9114 25.6035L16.4821 29.5929H19.3079L17.9114 25.6035ZM29.2812 22.6115H33.6168C35.9072 22.6115 37.2324 23.9408 37.2324 25.7297C37.2324 26.9277 36.4799 27.9124 35.5309 28.2242C36.578 28.4703 37.5924 29.4386 37.5924 30.9484C37.5924 32.8521 36.1526 34.2471 33.9603 34.2471H29.2812V22.6115ZM31.7746 27.2658H33.1476C34.0256 27.2658 34.6004 26.7932 34.6004 26.0109C34.6004 25.2613 34.1054 24.7724 33.1156 24.7724H31.7746V27.2658ZM31.7746 32.0862H33.3617C34.3396 32.0862 34.9328 31.5735 34.9328 30.7564C34.9328 29.9714 34.3557 29.4267 33.3617 29.4267H31.7746V32.0862ZM48.7321 34.5795C45.4133 34.5795 42.7453 32.1658 42.7453 28.5371C42.7453 24.9083 45.4784 22.4453 48.6996 22.4453C52.1648 22.4453 53.694 24.6948 54.0682 26.3696L51.6442 27.1414C51.4652 26.3368 50.7331 24.974 48.6996 24.974C47.154 24.974 45.4133 26.0905 45.4133 28.5371C45.4133 30.7209 47.0076 31.9852 48.7321 31.9852C50.7331 31.9852 51.5303 30.6388 51.758 29.8014L54.2146 30.5074C53.8404 32.1166 52.3112 34.5795 48.7321 34.5795Z" fill="#009AE0"/>
<rect x="41.133" y="41.0623" width="16.4489" height="2.32711" fill="#009AE0" stroke="#2D2D45"/>
<rect x="12.3474" y="13.6356" width="16.4489" height="2.32711" fill="#009AE0" stroke="#2D2D45"/>
</svg>
