<?xml version="1.0" encoding="utf-8"?>
<!-- Generator: Adobe Illustrator 18.1.1, SVG Export Plug-In . SVG Version: 6.00 Build 0)  -->
<svg version="1.1" id="Layer_1" xmlns="http://www.w3.org/2000/svg" xmlns:xlink="http://www.w3.org/1999/xlink" x="0px" y="0px"
	 viewBox="0 0 1962 1323.9" enable-background="new 0 0 1962 1323.9" xml:space="preserve">
<rect y="0" fill="#FFFFFF" width="1962" height="1323.9"/>
<circle fill="#FAC3C6" cx="981" cy="661.9" r="576.2"/>
<g>
	<path fill="#FFFFFF" d="M792.3,944.2c0,0-71.7-17.1-96.8-58.4c-23.4-38.6,6.1-96.1,6.1-201.2c0-116.3-29.6-162.6-6.1-201.2
		c25.1-41.3,96.8-58.4,96.8-58.4l77.6,251.2L792.3,944.2z"/>
	<path fill="#FFFFFF" d="M1171.7,944.2c0,0,71.7-17.1,96.8-58.4c23.4-38.6-6.1-96.1-6.1-201.2c0-116.3,29.6-162.6,6.1-201.2
		c-25.1-41.3-96.8-58.4-96.8-58.4l-77.6,251.2L1171.7,944.2z"/>
	<path fill="#FFFFFF" d="M1180.7,967.1c26.7,132.2-52.4,236.8-199,236.8l0,0c-146.6,0-225.7-104.6-199-236.8
		c32.2-202.2,32.2-408.2,0-610.4C756,224.6,835,119.9,981.7,119.9l0,0c146.7,0,225.7,104.6,199,236.8
		C1148.5,558.9,1148.5,765,1180.7,967.1z"/>
	<path fill="#FFFFFF" d="M1180.7,967.1c26.7,132.2-52.4,236.8-199,236.8l0,0c-146.6,0-225.7-104.6-199-236.8
		c32.2-202.2,32.2-408.2,0-610.4C756,224.6,835,119.9,981.7,119.9l0,0c146.7,0,225.7,104.6,199,236.8
		C1148.5,558.9,1148.5,765,1180.7,967.1z"/>
	<path fill="#BDBDBD" d="M981.7,1185.5L981.7,1185.5c-64.2,0-117.4-21.9-150-61.7c-32-39.1-43-93.4-31-153l0.1-0.7
		c32.5-204.4,32.5-411.7,0-616.2l-0.1-0.7c-12-59.6-1-113.9,31-153c32.6-39.8,85.8-61.7,149.9-61.7c64.1,0,117.4,21.9,150,61.7
		c32,39.1,43,93.4,31,153l-0.1,0.7c-32.5,204.4-32.5,411.7,0,616.2l0.1,0.7c12,59.6,1,113.9-31,153
		C1099,1163.6,1045.8,1185.5,981.7,1185.5z M981.6,148.4c-61,0-111.5,20.6-142.1,58c-30,36.7-40.3,88.1-28.9,144.6l0.2,1.2
		c32.7,205.5,32.7,413.8,0,619.3l-0.2,1.2c-11.4,56.6-1.1,107.9,28.9,144.6c30.6,37.4,81.1,58,142.1,58h0.1
		c61,0,111.5-20.6,142.1-58c30-36.7,40.3-88.1,28.9-144.6l-0.2-1.2c-32.7-205.5-32.7-413.8,0-619.3l0.2-1.2
		c11.4-56.6,1.1-107.9-28.9-144.6C1093.2,169.1,1042.7,148.4,981.6,148.4z"/>
	<path fill="#BDBDBD" d="M981.7,1162c-5.8,0-11.5-0.2-17.1-0.6l0.7-10c5.3,0.4,10.9,0.6,16.4,0.6V1162z M995.3,1161.7l-0.6-10
		c5.5-0.3,11-0.8,16.3-1.5l1.3,10C1006.8,1160.8,1001.1,1161.3,995.3,1161.7z M947.5,1159.6c-5.7-0.8-11.4-1.9-16.9-3.2l2.3-9.8
		c5.2,1.2,10.6,2.2,16,3L947.5,1159.6z M1029.3,1157.2l-2.1-9.8c5.4-1.2,10.7-2.6,15.8-4.2l3,9.6
		C1040.6,1154.5,1035,1155.9,1029.3,1157.2z M914.1,1151.7c-5.5-1.9-10.9-4-16.1-6.4l4.2-9.1c4.8,2.2,9.9,4.2,15.1,6L914.1,1151.7z
		 M1062.2,1146.7l-4-9.2c5-2.2,9.9-4.6,14.5-7.2l5,8.7C1072.7,1141.8,1067.5,1144.4,1062.2,1146.7z M882.7,1137.2
		c-5-3.1-9.8-6.4-14.3-10l6.3-7.8c4.1,3.3,8.5,6.4,13.2,9.2L882.7,1137.2z M1092.1,1129.4l-6.1-8c4.3-3.3,8.4-6.8,12.1-10.6l7.1,7.1
		C1101.2,1122,1096.8,1125.8,1092.1,1129.4z M855.6,1115.4c-2-2.1-3.9-4.3-5.7-6.5c-1.9-2.3-3.7-4.6-5.4-7.1l8.2-5.8
		c1.6,2.2,3.2,4.4,4.9,6.5c1.6,2,3.4,4,5.2,5.9L855.6,1115.4z M1116.7,1104.7l-8-6c3.2-4.2,6.1-8.8,8.7-13.5l8.8,4.9
		C1123.4,1095.2,1120.2,1100.1,1116.7,1104.7z M835.5,1086.9c-2.6-5.1-5-10.4-7-16l9.5-3.4c1.8,5.1,4,10.1,6.4,14.8L835.5,1086.9z
		 M1133.6,1074.3l-9.4-3.7c1.9-4.9,3.6-10.1,4.9-15.4l9.7,2.5C1137.4,1063.4,1135.6,1069,1133.6,1074.3z M823.7,1054.3
		c-1.3-5.5-2.3-11.3-3-17.1l10-1.2c0.6,5.4,1.6,10.8,2.8,16L823.7,1054.3z M1142.2,1040.8l-10-1.4c0.7-5.3,1.2-10.7,1.4-16.2
		l10.1,0.4C1143.5,1029.4,1143,1035.2,1142.2,1040.8z M819.5,1020.1c0-1.1,0-2.3,0-3.4c0-4.5,0.2-9.2,0.5-13.8l10,0.7
		c-0.3,4.4-0.5,8.8-0.5,13.1c0,1.1,0,2.2,0,3.2L819.5,1020.1z M1133.5,1006.9c-0.3-5.3-0.8-10.8-1.6-16.3l10-1.4
		c0.8,5.7,1.3,11.5,1.6,17.1L1133.5,1006.9z M831.9,987.3l-9.9-1.5c0.5-3.4,1.1-6.9,1.8-10.4l0.3-1.7l0.7-4.4l9.9,1.6l-1.1,6.6
		C833,980.7,832.4,984,831.9,987.3z M1129.2,974.2c-0.9-5.5-1.7-11.1-2.6-16.6l10-1.5c0.8,5.5,1.7,11,2.5,16.5L1129.2,974.2z
		 M837.3,954.2l-10-1.5c0.8-5.5,1.6-11,2.4-16.6l10,1.4C838.9,943.1,838.1,948.6,837.3,954.2z M1124.2,940.9
		c-0.8-5.5-1.5-11.1-2.3-16.7l10-1.3c0.7,5.5,1.5,11,2.3,16.6L1124.2,940.9z M841.9,920.9l-10-1.3c0.7-5.5,1.4-11.1,2.1-16.6l10,1.2
		C843.3,909.8,842.6,915.3,841.9,920.9z M1119.8,907.6c-0.7-5.6-1.4-11.1-2-16.7l10-1.2c0.6,5.5,1.3,11.1,2,16.6L1119.8,907.6z
		 M846,887.5l-10-1.1c0.6-5.5,1.2-11.1,1.8-16.6l10,1.1C847.2,876.4,846.6,882,846,887.5z M1115.9,874.2c-0.6-5.6-1.2-11.1-1.7-16.7
		l10-1c0.5,5.5,1.1,11.1,1.7,16.6L1115.9,874.2z M849.5,854.1l-10-1c0.5-5.5,1.1-11.1,1.5-16.7l10,0.9
		C850.6,842.9,850.1,848.5,849.5,854.1z M1112.6,840.8c-0.5-5.6-1-11.2-1.4-16.7l10-0.8c0.5,5.6,0.9,11.1,1.4,16.7L1112.6,840.8z
		 M852.5,820.6l-10-0.8c0.4-5.6,0.9-11.1,1.3-16.7l10,0.7C853.4,809.4,852.9,815,852.5,820.6z M1109.9,807.3
		c-0.4-5.6-0.8-11.2-1.2-16.8l10-0.7c0.4,5.6,0.7,11.1,1.1,16.7L1109.9,807.3z M854.9,787.1l-10-0.6c0.4-5.6,0.7-11.1,1-16.7l10,0.5
		C855.6,775.9,855.2,781.5,854.9,787.1z M1107.7,773.7c-0.3-5.6-0.6-11.2-0.9-16.8l10-0.5c0.3,5.6,0.6,11.1,0.9,16.7L1107.7,773.7z
		 M856.7,753.5l-10.1-0.5c0.3-5.6,0.5-11.1,0.7-16.7l10.1,0.4C857.2,742.3,857,747.9,856.7,753.5z M1106.1,740.1
		c-0.2-5.6-0.4-11.2-0.6-16.8l10.1-0.3c0.2,5.6,0.4,11.1,0.6,16.7L1106.1,740.1z M858,719.9l-10.1-0.3c0.2-5.6,0.3-11.1,0.4-16.7
		l10.1,0.2C858.3,708.7,858.1,714.3,858,719.9z M1105.1,706.5c-0.1-5.6-0.2-11.2-0.3-16.8l10.1-0.1c0.1,5.6,0.2,11.1,0.3,16.7
		L1105.1,706.5z M858.7,686.3l-10.1-0.1c0.1-5.6,0.1-11.1,0.1-16.7l10.1,0C858.8,675.1,858.7,680.7,858.7,686.3z M1104.6,672.9
		c0-3.7,0-7.3,0-11l0-5.8l10.1,0l0,5.8c0,3.6,0,7.3,0,10.9L1104.6,672.9z M848.7,652.7c0-5.6-0.1-11.1-0.1-16.7l10.1-0.1
		c0.1,5.6,0.1,11.2,0.1,16.8L848.7,652.7z M1114.7,639.4l-10.1-0.1c0.1-5.6,0.2-11.2,0.3-16.8l10.1,0.2
		C1114.9,628.3,1114.8,633.8,1114.7,639.4z M848.3,619.3c-0.1-5.6-0.3-11.1-0.4-16.7l10.1-0.3c0.2,5.6,0.3,11.2,0.4,16.8
		L848.3,619.3z M1115.4,606l-10.1-0.3c0.2-5.6,0.3-11.2,0.5-16.8l10.1,0.4C1115.7,594.8,1115.6,600.4,1115.4,606z M847.3,585.8
		c-0.2-5.6-0.5-11.1-0.7-16.7l10.1-0.5c0.3,5.6,0.5,11.2,0.7,16.8L847.3,585.8z M1116.6,572.5l-10.1-0.5c0.3-5.6,0.5-11.2,0.8-16.8
		l10,0.5C1117.2,561.4,1116.9,567,1116.6,572.5z M845.7,552.4c-0.3-5.6-0.6-11.1-1-16.7l10-0.6c0.4,5.6,0.7,11.2,1,16.8L845.7,552.4
		z M1118.4,539.1l-10-0.6c0.3-5.6,0.7-11.2,1.1-16.8l10,0.7C1119.1,528,1118.8,533.6,1118.4,539.1z M843.6,519
		c-0.4-5.6-0.8-11.1-1.3-16.7l10-0.8c0.5,5.6,0.9,11.2,1.3,16.8L843.6,519z M1120.8,505.8l-10-0.8c0.4-5.6,0.9-11.2,1.4-16.8l10,0.9
		C1121.7,494.7,1121.2,500.2,1120.8,505.8z M840.9,485.7c-0.5-5.6-1-11.1-1.6-16.7l10-1c0.5,5.6,1.1,11.2,1.6,16.7L840.9,485.7z
		 M1123.7,472.5l-10-1c0.5-5.6,1.1-11.2,1.7-16.7l10,1C1124.8,461.4,1124.2,466.9,1123.7,472.5z M837.6,452.4
		c-0.6-5.5-1.2-11.1-1.8-16.6l10-1.1c0.6,5.6,1.3,11.1,1.8,16.7L837.6,452.4z M1127.2,439.2l-10-1.1c0.6-5.6,1.3-11.1,2-16.7l10,1.2
		C1128.5,428.1,1127.8,433.6,1127.2,439.2z M833.8,419.2c-0.7-5.5-1.4-11.1-2.1-16.6l10-1.3c0.7,5.6,1.4,11.1,2.1,16.7L833.8,419.2z
		 M1131.2,406l-10-1.3c0.7-5.6,1.5-11.1,2.2-16.7l10,1.4C1132.7,394.9,1131.9,400.5,1131.2,406z M829.5,386
		c-0.8-5.5-1.6-11-2.4-16.6l10-1.5c0.8,5.5,1.6,11.1,2.4,16.6L829.5,386z M1135.8,372.8l-10-1.5c0.8-5.5,1.7-11.1,2.5-16.6l9.9,1.5
		C1137.5,361.8,1136.6,367.3,1135.8,372.8z M824.5,352.9l-0.8-4.5c-0.8-4-1.5-8.1-2.1-12.1l10-1.4c0.6,3.8,1.2,7.7,2,11.5l0.8,4.9
		L824.5,352.9z M1141.2,339.8l-9.9-1.6c0.9-5.5,1.5-10.9,2-16.2l10,0.8C1142.8,328.4,1142.1,334.1,1141.2,339.8z M819.9,319.3
		c-0.3-4-0.4-8.1-0.4-12c0-1.7,0-3.5,0.1-5.2l10.1,0.3c0,1.6-0.1,3.3-0.1,4.9c0,3.7,0.1,7.6,0.4,11.4L819.9,319.3z M1133.8,305.7
		c-0.1-5.5-0.4-11-0.9-16.2l10-1.1c0.6,5.6,0.9,11.4,1,17.2L1133.8,305.7z M830.9,286.1l-10-1.3c0.7-5.8,1.8-11.5,3.1-17l9.8,2.4
		C832.6,275.4,831.6,280.7,830.9,286.1z M1130.3,273.4c-1.2-5.3-2.6-10.6-4.4-15.6l9.5-3.3c1.9,5.4,3.4,11,4.7,16.7L1130.3,273.4z
		 M838.6,254.8l-9.4-3.5c2.1-5.5,4.5-10.8,7.2-15.9l8.9,4.7C842.7,244.8,840.5,249.7,838.6,254.8z M1119.7,243
		c-2.4-4.8-5.1-9.5-8.1-13.9l8.3-5.7c3.2,4.7,6.2,9.8,8.8,15L1119.7,243z M853.7,226.5l-8.1-5.9c1.4-1.9,2.8-3.8,4.3-5.6
		c2.2-2.7,4.5-5.3,6.9-7.8l7.2,7c-2.2,2.3-4.4,4.7-6.4,7.1C856.3,223,855,224.7,853.7,226.5z M1101.6,216.6
		c-3.6-3.9-7.5-7.6-11.7-11l6.4-7.8c4.5,3.7,8.8,7.8,12.7,12L1101.6,216.6z M876,203.5l-6.2-7.9c4.5-3.5,9.3-6.8,14.4-9.8l5.1,8.7
		C884.7,197.2,880.2,200.3,876,203.5z M1076.9,196.2c-4.5-2.8-9.2-5.4-14.2-7.7l4.3-9.1c5.3,2.5,10.4,5.3,15.2,8.3L1076.9,196.2z
		 M903.7,187l-4.1-9.2c5.2-2.3,10.6-4.4,16.1-6.2l3.1,9.6C913.6,182.9,908.5,184.9,903.7,187z M1047.7,182.3
		c-5-1.7-10.3-3.3-15.6-4.6l2.4-9.8c5.7,1.4,11.2,3,16.5,4.9L1047.7,182.3z M934.6,176.9l-2.2-9.8c5.5-1.2,11.2-2.3,16.9-3.1l1.4,10
		C945.2,174.7,939.8,175.7,934.6,176.9z M1016,174.5c-5.3-0.8-10.8-1.5-16.3-1.9l0.8-10c5.8,0.4,11.5,1.1,17,2L1016,174.5z
		 M967,172.4l-0.6-10c5-0.3,10.1-0.4,15.3-0.5l1.8,0l-0.1,10.1l-1.7,0c0,0-0.1,0-0.1,0C976.7,171.9,971.7,172.1,967,172.4z"/>
	<g>
		<g>
			<path fill="#F599A1" d="M938.2,533.1c0,0-81.9,8.3-85.5-16.4c-3.7-24.7,18.1-37.2,33.3-44.6c15.2-7.5,29.7-16.2,36.8,5.9
				c7.1,22.1,11.6,39.2,20.9,48.7C943.6,526.7,950.6,532.2,938.2,533.1z"/>
		</g>
		<g>
			<path fill="#F599A1" d="M929.1,478.7c0,0-9.7-29.5,15.6-32.7c25.3-3.2,40.5,9.2,40.3,17.2c-0.2,8,2,6.3,5.5,8.6
				c3.5,2.3,19.4,5.8,18.9,14c-0.5,8.2-3.9,16.3-10,19.9c-6.1,3.6-22.4-0.3-28.8,5.8c-6.4,6.1-16.4,18.8-19.9,19.4
				c-3.5,0.6-8.5-0.7-11.6-12.7C936.2,506.3,929.1,478.7,929.1,478.7z"/>
		</g>
		<g>
			<path fill="#F599A1" d="M948.3,534.2c0,0,21,9.8,27.2,13.3c6.2,3.5,20.8,24.1,27,27.7c6.2,3.5,30,11.1,35-13.7
				c5-24.8,7.1-23.9,7.8-27.9c0.7-4-0.6-10.4,0.4-16.1c1-5.7-2.3-19.8-16.8-17.9c-14.5,1.9-33.3,4.1-57.9,17
				C946.4,529.5,939.5,530.1,948.3,534.2z"/>
		</g>
		<g>
			<path fill="#F599A1" d="M941.3,536.7c0,0-0.7,21-2.6,27.9c-2,7-21.5,38.9-15.6,50c5.9,11,13.9,18,24.7,17
				c10.8-1,8.9,4.1,18.7,4.4c9.9,0.2,40.8-6.7,39.1-35.7c-1.8-29.1-44.4-58.3-51.9-61.6C946.1,535.3,939.8,527.6,941.3,536.7z"/>
		</g>
		<g>
			<path fill="#F599A1" d="M854.2,557.2c0,0,2.3,20.6,3,30.2c0.6,9.6,6.9,31.8,29.9,27c23-4.7,12.1,0.5,18.8,0.2
				c6.6-0.3,21.4-14.4,28.3-47.2c6.9-32.9,8.4-23.1,9.8-27.3c1.3-4.2-12.2-5.6-43.6-2.8C868.8,540.1,849.5,534.2,854.2,557.2z"/>
		</g>
		<g>
			<path fill="#F17077" d="M946.8,542.2c0,0,0.7,23.9-1.7,33.6c-2.4,9.7-3.7,24.6-1.9,28.5c1.7,3.9,5.6,3.9,10.9,4.8
				c5.2,0.9,8.9,14.7,15.6,11.6c6.7-3.2,11.1-12.9,14.9-13.1c3.8-0.2,19-5.4,15.9-13.6c-3.1-8.2-48.3-58.8-51.2-54.5
				C949.2,539.5,947.4,540.5,946.8,542.2z"/>
		</g>
		<g>
			<path fill="#F17077" d="M953,533.3c0,0,45.9,5.7,54.8,9.9c8.9,4.3,22.6,10,23.2,5c0.6-4.9-0.7-13.7,4-19.1
				c4.7-5.5,1.7-16.6-1.6-19.2c-3.3-2.6-24-5-35-0.1C987.4,514.7,951.1,529.5,953,533.3z"/>
		</g>
		<g>
			<path fill="#F17077" d="M944.1,516c0,0-6.2-32.9-3.2-36.9c3.1-4,8.7-3.7,11.5-8.3c2.8-4.6,16.4-7.6,18,0.2
				c1.7,7.8,4.6,10.9,9,11.2c4.3,0.3,13.8,3.6,9.6,10.5c-4.2,6.9-23,16.3-28.5,24.3c-5.4,8-11.3,15-13,11.9
				C945.9,525.8,944.1,516,944.1,516z"/>
		</g>
		<g>
			<path fill="#F17077" d="M939.4,528c0,0-14.3-16-16.7-23.5c-2.4-7.5-6.4-18.9-14.5-15.5c-8.2,3.4-6,4.1-11.9,2.2
				c-5.9-1.9-15.3,0.4-9.8,7.1c5.5,6.7,5.6,8.6,3,11.1c-2.6,2.6-6.8,4.5,0.1,7.9c7,3.5,42.7,14.3,46.3,12.5
				C939.4,528,939.4,528,939.4,528z"/>
		</g>
		<g>
			<path fill="#F17077" d="M935,538.5c0,0-42.8,13.9-54.6,19.4c-11.7,5.5,2.1,7.3,1.9,9.8c-0.3,2.5-10,12.1-7.9,15.9
				c2.1,3.8,21.9-10.3,27.9-11.5c6-1.2,5.8,0.2,5.5,6.1c-0.4,5.9,6.4,22.3,15.1,1.7C931.5,559.4,944.5,537.4,935,538.5z"/>
		</g>
		<g>
			<g>
				<path fill="#FAC3C6" d="M965.9,458.8c0.5-0.3,1.2-0.2,1.6,0.1c0.7,0.5,0.8,1.5,0.3,2.2c-13.1,17.6-20.4,70.2-20.5,70.7
					c-0.1,0.9-0.9,1.4-1.8,1.3c-0.9-0.1-1.4-0.9-1.3-1.8c0.3-2.2,7.5-53.9,21.1-72.1C965.5,459,965.7,458.9,965.9,458.8z"/>
			</g>
			<g>
				<path fill="#FAC3C6" d="M877.2,482.6c0.5-0.3,1.1-0.2,1.6,0.1c1.4,1,25.5,17.5,44.2,31.7c-9.8-11.6-19.9-24.8-21.4-30.3
					c-0.2-0.8,0.3-1.7,1.1-1.9c0.8-0.2,1.7,0.3,1.9,1.1c2.6,9.5,25.8,34.9,35.4,45c0.9,0.8,1.6,1.5,2.3,2.2c2.7,2.8,2.8,2.9,2.3,3.9
					l-0.5,1l-1.1-0.1c-0.2,0-0.6-0.2-1.1-0.6l0,0c0,0,0,0,0-0.1c-1.4-1.1-3.7-3.3-6.6-6.4c-16.9-14.6-57.9-42.6-58.3-42.9
					c-0.7-0.5-0.9-1.5-0.4-2.2C876.8,482.9,877,482.7,877.2,482.6z"/>
			</g>
			<g>
				<path fill="#FAC3C6" d="M871.4,503.3c0.4-0.2,0.8-0.2,1.2-0.1c1.9,0.7,47.1,16.6,61.1,23.7c0.8,0.4,1.1,1.3,0.7,2.1
					c-0.4,0.8-1.3,1.1-2.1,0.7c-13.9-7-60.3-23.4-60.8-23.5c-0.8-0.3-1.2-1.2-0.9-2C870.8,503.8,871.1,503.5,871.4,503.3z"/>
			</g>
			<g>
				<path fill="#FAC3C6" d="M895.7,557.2c15.4-8,32.9-16.4,42.8-19.1c0.7-0.2,1.4,0.1,1.8,0.7c0.3,0.6,0.2,1.4-0.3,1.9
					c-0.4,0.4-38,36.2-50.9,60c-0.4,0.8-1.4,1-2.1,0.6c-0.8-0.4-1-1.4-0.6-2.1c10.5-19.3,35.9-45.4,46.6-56
					c-22.6,8.5-65.2,32.6-65.6,32.9c-0.7,0.4-1.7,0.2-2.1-0.6c-0.4-0.7-0.2-1.7,0.6-2.1C866.9,572.7,880.2,565.2,895.7,557.2z"/>
			</g>
			<g>
				<path fill="#FAC3C6" d="M947.3,538.7c0.6-0.3,1.3-0.3,1.9,0.2c4.5,3.3,33.1,60.8,36.5,75.6c0.2,0.8-0.3,1.7-1.2,1.9
					c-0.8,0.2-1.7-0.3-1.9-1.2c-3.2-13.9-26.5-59.8-33.5-71.3c0.4,8.2,3.9,30.6,7.6,50.9c0.2,0.8-0.4,1.7-1.3,1.8
					c-0.8,0.2-1.7-0.4-1.8-1.2c-9.9-54.5-7.6-56-6.6-56.6C947.2,538.7,947.3,538.7,947.3,538.7z"/>
			</g>
			<g>
				<path fill="#FAC3C6" d="M949.8,533.9c0.1-0.1,0.2-0.1,0.3-0.1c1.7-0.4,42.4-10.4,70.4-6.6c17.1,2.3,20.3,5.8,20.7,6.4
					c0.5,0.7,0.3,1.7-0.4,2.2c-0.7,0.5-1.7,0.3-2.2-0.4l0,0c0,0-3-3-18.6-5.1c-27.4-3.7-68.8,6.5-69.2,6.6c-0.8,0.2-1.7-0.3-1.9-1.1
					C948.9,535,949.2,534.3,949.8,533.9z"/>
			</g>
		</g>
		<g>
			<path fill="#FAD7D9" d="M928.2,531.9c0,0-1.4,5.2,2,7.7c3.4,2.6,5.9,1.3,8.9,4.3c3.1,3.1,4.4,5.3,8,1.9c3.6-3.3,6.9-3.6,9.2-6.2
				c2.3-2.5,2-7.1-0.3-8.8c-2.3-1.7-0.7-0.2-5-4.5c-4.3-4.3-8-6.9-12.8-3.5C933.4,526.3,925.9,527.6,928.2,531.9z"/>
		</g>
		<g>
			<path fill="#F59EA4" d="M938.6,527.7c0,0-3.4,0.3-2.9,3c0.5,2.7-0.8,4.9,4.6,5.8c5.5,0.8,4.8,2.8,7.4,2.5
				c2.6-0.3,2.8-12.9-1.4-13.1C942.2,525.6,940.6,525.8,938.6,527.7z"/>
		</g>
	</g>
	<g>
		<g>
			<path fill="#77A4D7" d="M1036.7,650.4c0,0-58.8-21-36.2-102.3c22.6-81.4,26.8-52.3,51.5-20
				C1071.8,553.7,1101.5,611.9,1036.7,650.4z"/>
		</g>
		<g>
			<path fill="#83B6DB" d="M1052.1,528c-13.4-17.4-20.7-33.9-28.3-32.5c11.5,47.2,12.9,154.9,12.9,154.9
				C1101.5,611.9,1071.8,553.7,1052.1,528z"/>
		</g>
		<g>
			<path fill="#5F89B6" d="M1035,650.8c0-0.1,0-0.2,0-0.3c0-1.1-1.6-108.1-12.9-154.5c-0.2-0.8,0.3-1.8,1.3-2.1
				c0.9-0.2,1.8,0.3,2.1,1.3c11.4,46.8,12.9,154.2,13,155.3c0,0.9-0.7,1.7-1.7,1.7C1035.9,652.2,1035.2,651.6,1035,650.8z"/>
		</g>
		<g>
			<path fill="#A3DBE6" d="M1028.8,669.3c0,0-16.5-68.5,51.4-91.6c67.9-23.1,91.2-15.8,90-2.6c-1.2,13.3,2.2,78.7-74.9,89
				C1018.2,674.4,1028.8,669.3,1028.8,669.3z"/>
		</g>
		<g>
			<path fill="#6FA0D5" d="M1095.3,664.1c77-10.3,73.7-75.8,74.9-89c0.2-2.6-0.5-4.9-2.2-6.8c-60.7,7.4-139.2,101-139.2,101
				c0,0.3,0,0.6,0,0.9C1031.2,671,1043.3,671,1095.3,664.1z"/>
		</g>
		<g>
			<path fill="#5F89B6" d="M1027.1,669.6c-0.1-0.5,0-1,0.4-1.5c3.2-3.8,78.2-93.9,138.9-101.2c0.9-0.1,1.8,0.5,1.9,1.5
				c0.1,0.9-0.6,1.8-1.5,1.9c-59.3,7.2-135.9,99.1-136.7,100c-0.6,0.7-1.7,0.8-2.4,0.2C1027.4,670.3,1027.2,670,1027.1,669.6z"/>
		</g>
	</g>
	<g>
		<g>
			<path fill="#ACDFE8" d="M820,672.2c0,0-44.4,16.8-54-34.6c0,0-3-22,14.9-40.8C781,596.8,814.7,646.3,820,672.2z"/>
		</g>
		<g>
			<path fill="#82B6E3" d="M820,672.2c-5.4-25.8-39-75.3-39-75.3C747.5,674.5,820,672.2,820,672.2z"/>
		</g>
		<g>
			<path fill="#5273B8" d="M779.6,597c0.4-0.3,0.9-0.3,1.4-0.1c0.8,0.3,1.1,1.2,0.8,2c-10.5,24.3-11.5,42.9-2.9,55.3
				c12.3,17.8,40.8,16.6,41.1,16.6c0.8,0,1.6,0.6,1.6,1.4c0,0.8-0.6,1.6-1.4,1.6c-1.2,0.1-30.4,1.3-43.7-17.9
				c-9.2-13.3-8.3-32.8,2.6-58.2C779.2,597.3,779.4,597.1,779.6,597z"/>
		</g>
		<g>
			<path fill="#ACDFE8" d="M798.5,660.5c0.7,0.4-69.7,22-114-15.1C684.5,645.4,718.7,613.7,798.5,660.5z"/>
		</g>
		<g>
			<path fill="#5273B8" d="M919.6,720.9c1.9-1.3,3.8,0.5,4.9,1.5l-0.1,0.2c2,2.1,8.6,8.7,29.4,29.1c38.4,37.7,95.2,31.6,95.7,31.6
				l0.7,6c-2.5,0.3-60.3,6.4-100.7-33.2c-13.1-12.9-20.8-20.4-25.1-24.8c-7.1-7.1-7.6-7.6-5.4-9.8
				C919.2,721.3,919.4,721.1,919.6,720.9z"/>
		</g>
		<g>
			<path fill="#5273B8" d="M715.5,610.2c0.5,0.3,52.1,25.7,84.4,48.5c30.6,21.6,44.6,16.7,44.7,16.6l1.8,4.2
				c-0.6,0.3-16,6.2-49.1-17.1c-31.9-22.5-83.2-47.9-83.7-48.1L715.5,610.2z"/>
		</g>
		<g>
			<path fill="none" stroke="#8FA580" stroke-miterlimit="10" d="M841.3,594.6"/>
		</g>
		<g>
			<path fill="#83B6DB" d="M906.2,716.3c0,0-22.3,50.9-93.2,25.8c-70.9-25.2-44.8-27.1-14.6-47C822.4,679.1,876,656.3,906.2,716.3z"
				/>
		</g>
		<g>
			<path fill="#6FA0D5" d="M798.4,695c-16.3,10.8-31.4,16.3-30.7,23.1c42.6-7.2,138.4-1.8,138.4-1.8
				C876,656.3,822.4,679.1,798.4,695z"/>
		</g>
		<g>
			<path fill="#5273B8" d="M766.9,716.8c0.2-0.1,0.4-0.2,0.6-0.2c42.3-7.2,137.8-1.9,138.8-1.8c0.8,0,1.5,0.8,1.4,1.6
				c-0.1,0.8-0.8,1.5-1.6,1.4c-1-0.1-96.1-5.3-138.1,1.8c-0.8,0.1-1.6-0.4-1.7-1.2C766.1,717.7,766.4,717.1,766.9,716.8z"/>
		</g>
		<g>
			<path fill="#ACDFE8" d="M922.4,724.5c0,0-61.9,10.4-78.2-51.4c-16.3-61.7-8.4-82,3.3-80.1c11.7,1.9,70.1,3,74.4,72.1
				C926.3,734.2,922.4,724.5,922.4,724.5z"/>
		</g>
		<g>
			<path fill="#5B8BC8" d="M921.9,665.1c-4.4-69.1-62.7-70.2-74.4-72.1c-2.3-0.4-4.4,0.1-6.2,1.5c2.8,54.4,81.1,129.9,81.1,129.9
				c0.3,0,0.5,0,0.8,0C924,722.4,924.9,711.7,921.9,665.1z"/>
		</g>
		<g>
			<path fill="#5273B8" d="M840.7,594.5c0.2-0.1,0.5-0.2,0.8-0.2c0.8,0,1.6,0.6,1.6,1.4c2.7,53.1,79.6,126.9,80.4,127.6
				c0.6,0.6,0.6,1.5,0.1,2.1c-0.6,0.6-1.5,0.6-2.1,0.1c-3.2-3.1-78.5-75.3-81.3-129.7C840,595.3,840.3,594.8,840.7,594.5z"/>
		</g>
	</g>
	<g>
		<g>
			<path fill="#F599A1" d="M974.2,783.5c0,0-95.2-72.2-74.7-102.1c20.5-29.9,56-21.6,79.5-14.5c23.5,7.1,47.6,12.2,33.3,42.7
				c-14.3,30.5-26.5,53.2-26,72.4C986.2,782.1,988.2,794.8,974.2,783.5z"/>
		</g>
		<g>
			<path fill="#F599A1" d="M1018.3,716.6c0,0,18.8-41,48.9-19.3c30.1,21.6,34,49.8,25.8,58.2c-8.2,8.3-4.1,8.7-2.7,14.7
				c1.4,6,14.9,25.4,6.2,33.6c-8.7,8.2-20.2,13.5-30.2,11.2c-10-2.3-23.5-22.5-36.3-22.3c-12.8,0.1-36,3.8-40.3,1
				c-4.3-2.8-8.4-9.2,0.2-24.9C998.6,753.1,1018.3,716.6,1018.3,716.6z"/>
		</g>
		<g>
			<path fill="#F599A1" d="M983.7,794.6c0,0,12.7,31.2,15.8,41.1c3.1,9.9-1.7,46.3,1.4,56.2c3.1,9.9,20.9,41.4,50.8,20
				c29.9-21.5,31.2-18.4,35.8-21.9c4.7-3.5,9.6-11.7,16.3-16.7c6.7-5,17.1-23.4-0.2-35.6c-17.3-12.3-39.5-28.6-78.3-39.2
				C986.4,787.9,978.5,781.5,983.7,794.6z"/>
		</g>
		<g>
			<path fill="#F599A1" d="M973.9,790.4c0,0-21.4,21.6-30.4,27.1c-9,5.5-61.4,20.1-66,37.7c-4.6,17.6-3.1,32.9,9.4,42.5
				c12.5,9.6,5.4,13.2,15.6,23.2c10.2,10,50,33.3,76.9,0.7c26.9-32.6,10.4-105.9,5.7-116.9C980.4,793.7,981.3,779.2,973.9,790.4z"/>
		</g>
		<g>
			<path fill="#F599A1" d="M861.1,726c0,0-17.9,24.2-26.8,35c-8.9,10.8-24.1,40.6,5,58.3c29.1,17.7,12.5,12.5,19.7,18.8
				c7.3,6.3,37,5.9,76.8-22.2c39.9-28.1,31.8-16.2,37.4-19.3c5.6-3.2-7.4-18-43.6-46.1C893.5,722.3,878.7,696.9,861.1,726z"/>
		</g>
		<g>
			<path fill="#F17077" d="M974.2,801.7c0,0-22.9,26.1-35.1,34c-12.1,7.9-28.2,22.5-30.2,28.3c-2,5.8,2.1,9.7,6.8,15.8
				c4.7,6.1-5.1,24.5,5.1,27.7c10.2,3.2,24.6-2.7,28.8,0.8c4.2,3.6,25.5,13.1,30.3,1.3c4.9-11.8,6.9-110.3-0.5-108.5
				C979.4,801.2,976.5,800.4,974.2,801.7z"/>
		</g>
		<g>
			<path fill="#F17077" d="M989.7,798.4c0,0,43.1,51.4,48.4,64.8c5.3,13.4,14.2,33,19.7,28.3c5.5-4.6,12.8-15.3,23.2-16.4
				c10.4-1.1,18.2-15.9,17.3-22.1c-1-6.1-20.6-29.1-37.1-34.8C1044.7,812.7,991.3,792.4,989.7,798.4z"/>
		</g>
		<g>
			<path fill="#F17077" d="M997.3,771.2c0,0,25.9-41.1,33.1-42.3c7.2-1.2,13,4.7,20.5,2.5c7.5-2.2,24.9,8.1,18.9,18.1
				c-6,10-5.9,16.2-1.6,20.8c4.3,4.6,11.1,17.4-0.2,20.7c-11.3,3.2-40.6-5.5-54.3-2.4c-13.7,3.1-26.9,4.7-25.5-0.2
				C989.6,783.4,997.3,771.2,997.3,771.2z"/>
		</g>
		<g>
			<path fill="#F17077" d="M980.5,779.2c0,0,0.6-31.2,5.5-41.5c4.8-10.3,12-26.4-0.1-30.8c-12-4.4-10.5-1.6-14.9-9.5
				c-4.4-7.9-16.6-14.7-17.5-2.2c-0.8,12.5-2.5,14.7-7.8,14.8c-5.3,0.1-11.7-2-7.7,8.6c4,10.6,31.2,57.5,36.9,59
				C980.5,779.2,980.5,779.2,980.5,779.2z"/>
		</g>
		<g>
			<path fill="#F17077" d="M965.3,786c0,0-59.2-27.6-77.2-33.4c-17.9-5.8-5,9.9-7.7,12.2c-2.7,2.4-22.6,3-24.1,9.1
				c-1.5,6.2,33.4,10.7,41,15.4c7.6,4.7,6,6-0.2,11.9c-6.2,5.9-15.3,30,14.3,16.7C941,804.8,976.6,794.3,965.3,786z"/>
		</g>
		<g>
			<g>
				<path fill="#FAC3C6" d="M1077.1,731.8c0.8,0.2,1.5,0.9,1.6,1.8c0.2,1.2-0.6,2.4-1.8,2.6c-31.4,5.8-91.1,54.4-91.7,54.9
					c-1,0.8-2.4,0.6-3.2-0.3c-0.8-1-0.6-2.4,0.3-3.2c2.5-2,61.2-49.8,93.8-55.8C1076.4,731.7,1076.8,731.8,1077.1,731.8z"/>
			</g>
			<g>
				<path fill="#FAC3C6" d="M959.3,669.5c0.8,0.2,1.4,0.8,1.6,1.7c0.6,2.5,9.9,43.8,15.7,77.4c1-22.1,3.4-46,7.3-53.3
					c0.6-1.1,1.9-1.5,3.1-0.9c1.1,0.6,1.5,1.9,1,3.1c-6.7,12.7-7.1,62.6-6.9,82.9c0.1,1.7,0.2,3.2,0.2,4.6c0.1,5.7,0.1,5.8-1.4,6.4
					l-1.5,0.6l-1-1.2c-0.2-0.2-0.4-0.8-0.5-1.7l0,0c0,0,0-0.1,0-0.1c-0.4-2.5-0.7-7.2-0.7-13.3c-3.5-32.3-19.3-102.6-19.5-103.4
					c-0.3-1.2,0.5-2.4,1.7-2.7C958.5,669.3,958.9,669.4,959.3,669.5z"/>
			</g>
			<g>
				<path fill="#FAC3C6" d="M932.7,685.7c0.6,0.2,1.1,0.6,1.4,1.1c1.4,2.6,33.6,64.2,41.6,85.6c0.4,1.2-0.2,2.5-1.3,2.9
					c-1.2,0.4-2.5-0.2-2.9-1.3c-7.9-21.1-41-84.5-41.3-85.1c-0.6-1.1-0.2-2.5,1-3.1C931.6,685.6,932.1,685.6,932.7,685.7z"/>
			</g>
			<g>
				<path fill="#FAC3C6" d="M905.2,767c24.2,6.7,51.2,15.1,64.5,22c0.9,0.5,1.4,1.5,1.1,2.5c-0.2,1-1.1,1.7-2.2,1.7
					c-0.8,0-76.2,0.9-113.5,13.4c-1.2,0.4-2.5-0.2-2.9-1.4c-0.4-1.2,0.2-2.5,1.4-2.9c30.2-10.1,83-12.8,105-13.4
					c-32.4-13.3-101.5-29.8-102.3-30c-1.2-0.2-2-1.5-1.7-2.7c0.3-1.2,1.5-2,2.7-1.7C859.2,755.1,880.7,760.3,905.2,767z"/>
			</g>
			<g>
				<path fill="#FAC3C6" d="M978.3,798.4c1,0.3,1.7,1.1,1.9,2.1c1.5,7.9-25,97.4-36,116.4c-0.6,1.1-2,1.5-3.1,0.8
					c-1.1-0.6-1.5-2-0.8-3.1c10.3-18,31-89.8,34.8-108.9c-7.6,9.1-26.1,36.5-42.2,61.7c-0.7,1.1-2.1,1.4-3.1,0.7
					c-1.1-0.7-1.4-2.1-0.7-3.1c43.3-67.7,47.3-67,49-66.6C978.2,798.4,978.2,798.4,978.3,798.4z"/>
			</g>
			<g>
				<path fill="#FAC3C6" d="M985.7,795.9c0.2,0,0.3,0.1,0.5,0.2c2.3,1.2,55.4,30.9,81.4,62.6c15.9,19.4,15.8,26.2,15.7,27.4
					c-0.2,1.2-1.3,2.1-2.6,1.9c-1.3-0.1-2.1-1.3-1.9-2.6l0,0c0,0-0.2-6.1-14.7-23.8c-25.5-31-79.5-61.2-80.1-61.5
					c-1.1-0.6-1.5-2-0.9-3.1C983.6,796,984.7,795.6,985.7,795.9z"/>
			</g>
		</g>
		<g>
			<path fill="#FAD7D9" d="M964.6,772.3c0,0-6.6,4.1-5.5,10.2c1.1,6.1,5,7.1,5.2,13.4c0.2,6.3-0.6,9.9,6.6,10
				c7.1,0.1,10.9,2.9,15.9,2.5c5-0.4,9.1-5.5,8.4-9.7c-0.7-4.1-0.5-1-0.9-9.8c-0.3-8.9-1.7-15.2-10.2-16.4
				C975.8,771.5,966.5,765.5,964.6,772.3z"/>
		</g>
		<g>
			<path fill="#F59EA4" d="M979.9,778.1c0,0-3.9-3-6,0.3c-2.1,3.4-5.7,4.5-0.8,10.7c5,6.3,2.3,7.7,5.3,10c3,2.3,15.8-10.9,11.5-15.3
				C985.8,779.5,983.9,778,979.9,778.1z"/>
		</g>
	</g>
	<g>
		<g>
			<path fill="#FBD1D6" d="M1052.4,680c0,0-48.7-92.1-21.4-108.2c27.2-16.1,52.2,3.5,68.2,17.8c16,14.3,33.2,27.2,10.6,46
				c-22.6,18.9-40.5,32.3-47.2,47.7C1062.4,683.4,1059.3,694.2,1052.4,680z"/>
		</g>
		<g>
			<path fill="#FBD1D6" d="M1111.9,643.4c0,0,30-25.4,45.8,2.8c15.8,28.2,8.5,51.9-1,55.5c-9.5,3.6-6.4,5.4-7.5,10.6
				c-1.1,5.2,2.4,25.6-7.5,28.9c-9.9,3.3-21,3.2-28-2.2c-7.1-5.5-10.3-26.4-20.5-31c-10.2-4.6-29.9-10.3-32.3-14.1
				c-2.4-3.8-3.2-10.4,9.4-19.6C1082.9,665,1111.9,643.4,1111.9,643.4z"/>
		</g>
		<g>
			<path fill="#FBD1D6" d="M1055.9,692.4c0,0-1.5,29.4-2.7,38.3c-1.2,9-18.4,35.9-19.6,44.9c-1.2,9,1.3,40.4,32.8,34.5
				c31.5-6,31.4-3.1,36.4-4.1c5-1,11.9-5.7,19.1-7.2c7.2-1.5,22.2-12.2,13-28.2c-9.2-16.1-20.7-37.1-47.5-59.8
				C1060.5,688,1056.5,680.1,1055.9,692.4z"/>
		</g>
		<g>
			<path fill="#FBD1D6" d="M1049.6,685.4c0,0-24.9,9.2-34,10.3c-9.1,1-55.9-6.7-66,5.5c-10.1,12.2-14.5,24.9-8.2,37
				c6.3,12.2-0.6,12.4,3.8,24.1c4.4,11.7,27.2,44.7,60.5,28.8c33.3-15.9,47.2-79.9,47.6-90.3
				C1053.6,690.4,1059.6,679.3,1049.6,685.4z"/>
		</g>
		<g>
			<path fill="#FBD1D6" d="M984.1,593c0,0-23.1,12.6-34.1,17.9c-11,5.3-34,23.2-17.5,47.9c16.5,24.7,5.3,14.5,8.7,22.1
				c3.4,7.6,27,18.3,68.9,10.8c41.9-7.6,31.1-1.1,36.7-1.5c5.6-0.4,0.8-16.9-17.5-52.5C1011.1,602,1008.8,576.5,984.1,593z"/>
		</g>
		<g>
			<path fill="#F8BAC5" d="M1045.7,694.5c0,0-27.7,12.2-40.2,13.9c-12.5,1.7-30.6,7.4-34.3,11.3c-3.7,3.9-1.9,8.5-0.5,15
				c1.5,6.5-13.1,17.4-6.2,23.8c6.9,6.3,20.5,6.9,22.5,11.3c2,4.4,15.3,19.7,23.5,12.2c8.2-7.5,46.1-84.6,39.6-86
				C1050,696,1048,694.3,1045.7,694.5z"/>
		</g>
		<g>
			<path fill="#F8BAC5" d="M1059.1,697.6c0,0,15.2,56.5,14.4,69c-0.8,12.5-1,31.3,5.1,29.7c6.1-1.6,15.7-7.4,24.4-4.4
				c8.6,2.9,20.3-5.9,21.8-11.1c1.5-5.2-5.5-30.6-16.5-41.1C1097.4,729.1,1062.7,693.4,1059.1,697.6z"/>
		</g>
		<g>
			<path fill="#F8BAC5" d="M1075.2,678.8c0,0,35.6-23,41.7-21.3c6.1,1.7,8.5,8.5,15.3,9.5c6.7,1.1,16.7,15.6,8.3,21.2
				c-8.4,5.7-10.6,10.6-8.9,15.9c1.7,5.2,2.4,17.9-7.7,16.3c-10.1-1.6-30.1-19.3-42-21.9c-12-2.6-23-6.2-20.1-9.5
				C1064.6,685.6,1075.2,678.8,1075.2,678.8z"/>
		</g>
		<g>
			<path fill="#F8BAC5" d="M1059,679c0,0,12-24.4,19.6-30.8c7.6-6.4,19.2-16.5,11.3-24.4c-7.9-7.9-7.7-5.1-8.3-13
				c-0.6-7.9-7.7-17.8-13-8.2c-5.3,9.6-7.4,10.7-11.7,8.8c-4.3-1.9-8.5-5.9-9.3,3.9c-0.8,9.8,3.5,56.9,7.4,60.2
				C1059,679,1059,679,1059,679z"/>
		</g>
		<g>
			<path fill="#F8BAC5" d="M1044.5,678.8c0,0-36.7-43.6-48.7-54.8c-12-11.2-7.6,6-10.6,6.8c-3,0.9-19-6-22.4-1.7
				c-3.5,4.3,22.5,20.8,26.7,27.3c4.3,6.5,2.5,7-4.5,9.3c-7,2.4-23.1,18.1,5.1,18.5C1018.3,684.7,1050.3,689.5,1044.5,678.8z"/>
		</g>
		<g>
			<g>
				<path fill="#F17077" d="M1152.7,677.1c0.6,0.5,0.8,1.2,0.6,2c-0.3,1.1-1.3,1.7-2.4,1.4c-26.9-7-92.1,9.5-92.7,9.6
					c-1.1,0.3-2.1-0.4-2.4-1.4c-0.3-1.1,0.4-2.1,1.4-2.4c2.7-0.7,66.8-16.8,94.7-9.6C1152.3,676.8,1152.5,676.9,1152.7,677.1z"/>
			</g>
			<g>
				<path fill="#F17077" d="M1082.6,584.4c0.5,0.5,0.8,1.2,0.7,1.9c-0.5,2.2-8.3,38.3-16.1,67c9-17.1,19.7-35.1,25.4-39.5
					c0.9-0.7,2.1-0.5,2.8,0.4c0.7,0.9,0.5,2.1-0.4,2.8c-9.9,7.6-28.7,46.8-35.9,63c-0.5,1.4-1,2.6-1.5,3.7c-2,4.5-2.1,4.6-3.5,4.5
					l-1.4-0.1l-0.4-1.3c-0.1-0.3,0-0.8,0.2-1.6l0,0c0,0,0,0,0-0.1c0.6-2.1,2.1-5.9,4.3-10.8c9.1-26.8,22.5-88.2,22.6-88.9
					c0.2-1.1,1.3-1.7,2.3-1.5C1082.1,584.1,1082.4,584.2,1082.6,584.4z"/>
			</g>
			<g>
				<path fill="#F17077" d="M1055.6,587.5c0.4,0.3,0.7,0.8,0.7,1.4c0.1,2.6,2.9,63.1,1.3,83c-0.1,1.1-1,1.9-2.1,1.8
					c-1.1-0.1-1.9-1-1.8-2.1c1.6-19.6-1.3-81.9-1.3-82.5c0-1.1,0.8-2,1.9-2.1C1054.7,587,1055.2,587.2,1055.6,587.5z"/>
			</g>
			<g>
				<path fill="#F17077" d="M1003.9,641.6c16.7,14.2,34.9,30.8,42.8,41.2c0.5,0.7,0.5,1.7,0,2.4c-0.6,0.7-1.5,0.9-2.3,0.6
					c-0.6-0.3-60.6-27.3-94.6-31.2c-1.1-0.1-1.9-1.1-1.7-2.2c0.1-1.1,1.1-1.9,2.2-1.7c27.6,3.1,70.3,20.5,87.9,28
					c-20.7-22.4-69.3-60.9-69.8-61.4c-0.9-0.6-1-1.9-0.3-2.8c0.7-0.9,1.9-1,2.8-0.3C971.9,615.3,987.1,627.3,1003.9,641.6z"/>
			</g>
			<g>
				<path fill="#F17077" d="M1050.2,693.4c0.7,0.6,0.9,1.5,0.7,2.4c-1.7,6.8-55.6,67.8-71.3,78.8c-0.9,0.6-2.1,0.4-2.7-0.5
					c-0.6-0.9-0.4-2.1,0.5-2.7c14.8-10.4,57.6-59.6,67.7-73.3c-9.4,4.4-34.1,19.2-56.1,33.2c-0.9,0.6-2.1,0.3-2.7-0.6
					c-0.6-0.9-0.3-2.1,0.6-2.7c59.2-37.6,62.1-35.5,63.3-34.6C1050.1,693.3,1050.1,693.3,1050.2,693.4z"/>
			</g>
			<g>
				<path fill="#F17077" d="M1056.9,694.1c0.1,0.1,0.2,0.2,0.3,0.3c1.3,1.8,32.4,44.9,41.3,79.4c5.4,21.2,2.9,26.6,2.3,27.4
					c-0.6,0.9-1.8,1.2-2.7,0.6c-0.9-0.6-1.2-1.8-0.6-2.7l0,0c0,0,2.1-4.9-2.8-24.2c-8.7-33.8-40.3-77.7-40.7-78.1
					c-0.6-0.9-0.4-2.1,0.4-2.8C1055.2,693.4,1056.2,693.5,1056.9,694.1z"/>
			</g>
		</g>
		<g>
			<path fill="#F6D0CD" d="M1049,667.7c0,0-6.7,0.8-8.1,6c-1.4,5.2,1.3,7.5-0.8,12.5c-2.1,5.1-4.1,7.6,1.5,10.3
				c5.6,2.7,7.5,6.3,11.7,7.9c4.1,1.5,9.2-1,10.2-4.5c0.9-3.5-0.1-0.9,2.9-8.1c3-7.1,4.2-12.7-2-16.7
				C1058.1,671.1,1053,663.1,1049,667.7z"/>
		</g>
		<g>
			<path fill="#F17077" d="M1058.9,678c0,0-2-3.8-4.9-1.9c-2.9,1.9-6.2,1.4-4.6,8.2c1.6,6.8-1,6.9,0.5,9.8
				c1.5,2.9,16.5-2.8,14.8-7.8C1063.1,681.2,1062.1,679.3,1058.9,678z"/>
		</g>
	</g>
</g>
</svg>
