<svg width="80" height="81" viewBox="0 0 80 81" fill="none" xmlns="http://www.w3.org/2000/svg">
<rect x="16.7803" y="13" width="57.2195" height="46.439" fill="#009AE0" fill-opacity="0.3"/>
<path d="M44.6581 43.6191L33.0198 36.2129C32.6939 36.0066 32.2812 35.9929 31.9416 36.178C31.6041 36.3642 31.3936 36.7197 31.3936 37.1059V51.9183C31.3936 52.3045 31.6041 52.66 31.9427 52.8462C32.1014 52.933 32.276 52.9764 32.4516 52.9764C32.6494 52.9764 32.8473 52.9203 33.0198 52.8113L44.6581 45.4051C44.9628 45.2104 45.148 44.874 45.148 44.5121C45.148 44.1503 44.9628 43.8138 44.6581 43.6191ZM33.5096 49.9917V39.0326L42.1188 44.5121L33.5096 49.9917Z" fill="black"/>
<path d="M66.3078 20.1775H55.7275H17.6384H7.05803C6.474 20.1775 6 20.6504 6 21.2355V32.8739V44.5122V56.1506V67.7889C6 68.374 6.474 68.847 7.05803 68.847H17.6384H55.7275H66.3078C66.8919 68.847 67.3659 68.374 67.3659 67.7889V56.1506V44.5122V32.8739V21.2355C67.3659 20.6504 66.8919 20.1775 66.3078 20.1775ZM16.5803 43.4542H8.11606V33.9319H16.5803V43.4542ZM8.11606 45.5703H16.5803V55.0925H8.11606V45.5703ZM18.6964 56.1506V44.5122V32.8739V22.2936H54.6695V32.8739V44.5122V56.1506V66.7309H18.6964V56.1506ZM65.2498 43.4542H56.7855V33.9319H65.2498V43.4542ZM56.7855 45.5703H65.2498V55.0925H56.7855V45.5703ZM65.2498 22.2936V31.8158H56.7855V22.2936H65.2498ZM8.11606 22.2936H16.5803V31.8158H8.11606V22.2936ZM8.11606 66.7309V57.2086H16.5803V66.7309H8.11606ZM65.2498 66.7309H56.7855V57.2086H65.2498V66.7309Z" fill="black"/>
</svg>
