<svg width="64" height="64" viewBox="0 0 64 64" fill="none" xmlns="http://www.w3.org/2000/svg">
<path fill-rule="evenodd" clip-rule="evenodd" d="M63.8558 30.0762L63.8708 49.4977C63.9582 52.442 62.6 55.2429 60.2343 56.9978L53.2265 61.4599V62.8065C53.2265 63.3944 52.7498 63.871 52.162 63.871H41.5175C40.9297 63.871 40.4531 63.3944 40.4531 62.8065V51.1339C40.4528 50.7873 40.6215 50.4624 40.9052 50.2633L49.4728 44.2368C50.3095 43.645 51.3388 43.391 52.3548 43.5257L54.8662 29.2929C55.2456 27.127 57.1278 25.5479 59.3267 25.5507C61.8253 25.554 63.8505 27.5776 63.8558 30.0762ZM51.5901 59.9773L59.0688 55.2159C60.8355 53.8574 61.8323 51.7255 61.7418 49.4988L61.7266 30.0783C61.7259 28.9142 60.8898 27.9184 59.7433 27.7162C58.4379 27.4858 57.1929 28.3576 56.9627 29.663L54.3654 44.3808C54.4858 44.4774 54.6008 44.5804 54.71 44.6895C54.8467 44.826 54.9733 44.9721 55.0892 45.1265C56.443 46.9311 56.0776 49.4912 54.2731 50.8449L48.5429 55.1422L47.2653 53.4395L52.9955 49.1422C53.8402 48.5082 54.0288 47.318 53.4216 46.4538C52.8008 45.57 51.5809 45.357 50.6972 45.978L42.5818 51.6863V61.7419H51.0974V60.8755C51.0976 60.5116 51.2833 60.1729 51.5901 59.9773Z" fill="#2D2D45"/>
<path fill-rule="evenodd" clip-rule="evenodd" d="M14.4018 44.2368L22.9695 50.2633C23.2531 50.4624 23.4219 50.7873 23.4217 51.1339V62.8065C23.4217 63.3943 22.9451 63.871 22.3573 63.871H11.7128C11.1249 63.871 10.6483 63.3943 10.6483 62.8065V61.4598L3.66236 57.0123C1.28504 55.2589 -0.081977 52.4515 0.00384418 49.4988L0.0187465 30.0762C0.0204762 27.8795 1.59799 26.0009 3.76122 25.6193C6.22462 25.1847 8.57386 26.8295 9.00842 29.2929L11.5199 43.5257C12.5357 43.3911 13.5652 43.645 14.4018 44.2368ZM12.7772 61.7419H21.2927V51.6862L13.1773 45.9778C12.3131 45.3707 11.1229 45.5594 10.4889 46.404C9.84055 47.2678 10.0151 48.4937 10.8789 49.142L16.6091 53.4394L15.3315 55.1421L9.60132 50.8448C9.44684 50.7289 9.30074 50.6021 9.16423 50.4655C7.56915 48.8705 7.56915 46.2844 9.16423 44.6893C9.27347 44.5802 9.38843 44.4772 9.50884 44.3806L6.91172 29.6629C6.70961 28.5165 5.71382 27.6804 4.54957 27.6796C3.22407 27.6786 2.14871 28.7525 2.14778 30.0782L2.13274 49.4997C2.04373 51.7349 3.04937 53.8734 4.82766 55.2304L12.2845 59.9773C12.5914 60.1729 12.7771 60.5116 12.7772 60.8755V61.7419Z" fill="#2D2D45"/>
<path d="M52.4132 31.3002C52.4114 40.2877 47.0499 48.3973 38.8103 51.8753L36.61 52.8311L34.703 51.9944C26.6158 48.438 21.386 40.4076 21.3768 31.5303V20.4201L36.6712 11.9896L52.4132 20.4261V31.3002Z" fill="#009AE0" fill-opacity="0.3"/>
<path fill-rule="evenodd" clip-rule="evenodd" d="M32.0743 0.109684L50.7827 10.0785C51.0863 10.2401 51.276 10.5567 51.276 10.9007V23.6643C51.2749 34.499 44.776 44.2765 34.7864 48.472L31.9413 49.7006C31.7048 49.803 31.4361 49.8025 31.2001 49.6996L28.6752 48.5993C18.8675 44.3108 12.5255 34.6268 12.5146 23.9226V10.9007C12.5146 10.5603 12.6996 10.2474 12.9979 10.0837L31.1887 0.114881C31.4641 -0.036366 31.7968 -0.0384449 32.0743 0.109684ZM34.0572 46.7583C43.3586 42.8545 49.4111 33.7521 49.4132 23.6643V11.459L31.6424 1.98962L14.3768 11.4522V23.9226C14.3872 33.8867 20.2911 42.9002 29.4205 46.8919L31.5733 47.8311L34.0509 46.7614L34.0572 46.7583Z" fill="black"/>
<path fill-rule="evenodd" clip-rule="evenodd" d="M24.7708 23.3186C24.4366 22.9272 23.8488 22.881 23.4574 23.2152C23.066 23.5489 23.0198 24.1372 23.354 24.5281L28.2739 30.2895C28.6024 30.6741 29.1778 30.7266 29.5697 30.4075L41.0281 21.0852C41.4272 20.7609 41.4875 20.1741 41.1627 19.7749C40.8384 19.3763 40.2516 19.3155 39.8524 19.6403L29.0998 28.3877L24.7708 23.3186Z" fill="#009AE0" stroke="#2D2D45"/>
</svg>
